<?xml version="1.0" standalone="no"?>
<!DOCTYPE svg PUBLIC "-//W3C//DTD SVG 1.1//EN" "http://www.w3.org/Graphics/SVG/1.1/DTD/svg11.dtd">
<svg xmlns="http://www.w3.org/2000/svg">
<metadata>Copyright (C) 2019 by original authors @ fontello.com</metadata>
<defs>
<font id="scicons" horiz-adv-x="1000" >
<font-face font-family="scicons" font-weight="400" font-stretch="normal" units-per-em="1000" ascent="850" descent="-150" />
<missing-glyph horiz-adv-x="1000" />
<glyph glyph-name="tag" unicode="&#xe800;" d="M44 212l318-300 443 448 50 236-98 71-69-89 69-86-48-71-79-61-87 45v87l12 65 95 39 91 104-239-52z m-37-28l327-327a25 25 0 0 1 36 0l471 472a25 25 0 0 1 7 13l50 248a25 25 0 0 1-7 23l-9 9c56 60 151 173 107 217s-157-51-217-107l-9 9a25 25 0 0 1-23 7l-248-50a25 25 0 0 1-13-7l-471-471a25 25 0 0 1-1-36z m940 613a519 519 0 0 0-101-139l-38 38a519 519 0 0 0 139 101z m-438-147l226 45a883 883 0 0 1-93-111 100 100 0 1 1 63-29 100 100 0 0 1-13 11 829 829 0 0 0 80 95l39-39 34-35 0-3-45-225-448-448-291 291z m170-188a50 50 0 0 0-10-15 51 51 0 0 0-72 72 51 51 0 0 0 68 4 51 51 0 0 0 4-4 49 49 0 0 0 4-5 51 51 0 0 0 6-52z" horiz-adv-x="1000" />

<glyph glyph-name="preferences" unicode="&#xe801;" d="M929 469h-91a35 35 0 0 0-25 60l65 65a51 51 0 0 1 0 71l-83 83a52 52 0 0 1-71 0l-65-65a35 35 0 0 0-60 25v92a51 51 0 0 1-51 50h-116a51 51 0 0 1-51-50v-92a35 35 0 0 0-60-25l-65 65a52 52 0 0 1-71 0l-83-83a51 51 0 0 1 0-71l65-65a35 35 0 0 0-25-60h-92a51 51 0 0 1-50-50v-117a51 51 0 0 1 50-51h92a35 35 0 0 0 25-60l-65-65a51 51 0 0 1 0-71l83-83a52 52 0 0 1 71 0l65 65a35 35 0 0 0 60-25v-91a51 51 0 0 1 50-51h117a51 51 0 0 1 51 51v91a35 35 0 0 0 60 25l65-65a52 52 0 0 1 71 0l83 83a51 51 0 0 1 0 71l-65 65a35 35 0 0 0 25 60h91a51 51 0 0 1 51 51v117a51 51 0 0 1-51 50z m15-167a14 14 0 0 0-15-14h-91a72 72 0 0 1-51-122l65-65a14 14 0 0 0 0-20l-83-83a14 14 0 0 0-20 0l-64 65a72 72 0 0 1-122-50v-92a14 14 0 0 0-15-14h-116a14 14 0 0 0-15 14v91a70 70 0 0 1-44 66 72 72 0 0 1-28 6 71 71 0 0 1-50-21l-65-65a14 14 0 0 0-20 0l-82 83a14 14 0 0 0 0 20l65 65a72 72 0 0 1-51 122h-92a14 14 0 0 0-14 14v117a14 14 0 0 0 14 14h92a72 72 0 0 1 51 122l-65 65a14 14 0 0 0 0 20l82 82a14 14 0 0 0 21 0l64-65a72 72 0 0 1 122 51v92a14 14 0 0 0 15 14h116a14 14 0 0 0 15-14v-92a72 72 0 0 1 122-51l64 65a14 14 0 0 0 20 0l83-82a14 14 0 0 0 0-21l-65-64a72 72 0 0 1 51-122h91a14 14 0 0 0 15-14z m-454 221a163 163 0 1 1 163-163 164 164 0 0 1-163 163z m0-290a127 127 0 1 0 127 127 127 127 0 0 0-127-127z" horiz-adv-x="1000" />

<glyph glyph-name="address-book" unicode="&#xe802;" d="M1460 737h-132v82a32 32 0 0 1-31 31 1452 1452 0 0 1-553-110 1417 1417 0 0 1-552 110 32 32 0 0 1-32-31v-82h-129a32 32 0 0 1-31-31v-825a32 32 0 0 1 31-31h1431a32 32 0 0 1 31 31v826a34 34 0 0 1-33 30z m-683-810v758a1390 1390 0 0 0 492 104v-763a1413 1413 0 0 1-492-99z m-552 862a1382 1382 0 0 0 489-104v-758a1420 1420 0 0 1-491 99v763z m-164-113h102v-682a32 32 0 0 1 32-31 1375 1375 0 0 0 367-52h-501z m1369-763h-501a1375 1375 0 0 0 368 52 32 32 0 0 1 31 31v680h102z m-1091 680a1320 1320 0 0 0 246-51 20 20 0 0 1 10-1 34 34 0 0 1 30 22 31 31 0 0 1-21 37 1467 1467 0 0 1-257 52 33 33 0 0 1-35-26 31 31 0 0 1 27-33z m265-140a1467 1467 0 0 1-257 52 31 31 0 1 1-8-61 1320 1320 0 0 0 247-51 20 20 0 0 1 9-1 31 31 0 0 1 10 61z m0-149a1467 1467 0 0 1-257 52 31 31 0 0 1-8-62 1320 1320 0 0 0 247-50 20 20 0 0 1 9-1 31 31 0 0 1 10 61z m0-148a1467 1467 0 0 1-257 52 31 31 0 0 1-8-61 1320 1320 0 0 0 247-50 20 20 0 0 1 9-2 31 31 0 0 1 10 61z m540 498a1467 1467 0 0 1-257-52 31 31 0 0 1-20-38 32 32 0 0 1 30-22 20 20 0 0 1 9 2 1526 1526 0 0 0 247 50 30 30 0 0 1 26 35 32 32 0 0 1-35 25z m0-149a1439 1439 0 0 1-257-52 31 31 0 0 1-20-38 32 32 0 0 1 30-22 20 20 0 0 1 9 2 1461 1461 0 0 0 247 50 30 30 0 1 1-8 60z m0-148a1442 1442 0 0 1-257-53 31 31 0 0 1-20-38 32 32 0 0 1 30-22 20 20 0 0 1 9 2 1460 1460 0 0 0 247 50 30 30 0 0 1 26 35 32 32 0 0 1-35 26z m0-149a1439 1439 0 0 1-257-52 31 31 0 0 1-20-38 32 32 0 0 1 30-22 20 20 0 0 1 9 2 1461 1461 0 0 0 247 50 30 30 0 0 1 26 35 32 32 0 0 1-35 25z" horiz-adv-x="1493" />

<glyph glyph-name="lock" unicode="&#xe803;" d="M381-3a22 22 0 0 1 22 22v99a85 85 0 1 1-44-1v-98a22 22 0 0 1 22-22z m-44 202a41 41 0 1 0 42-41 41 41 0 0 0-42 41z m404 65a22 22 0 0 1 21 22v81a88 88 0 0 1-87 88h-71v172a223 223 0 1 1-446 0v-172h-70a88 88 0 0 1-88-87v-431a88 88 0 0 1 88-87h587a88 88 0 0 1 88 87v214a22 22 0 1 1-44 0v-214a44 44 0 0 0-44-43h-587a44 44 0 0 0-44 43v430a44 44 0 0 0 44 44h587a44 44 0 0 0 44-44v-81a22 22 0 0 1 22-22z m-181 191h-358v172a179 179 0 1 0 358 0z" horiz-adv-x="762" />

<glyph glyph-name="payment-method" unicode="&#xe804;" d="M832-150h-832v499h832z m-799 33h766v433h-766z m633 34h-499v16a83 83 0 0 1-84 83h-16v167h16a83 83 0 0 1 84 83v17h499v-17a83 83 0 0 1 83-83h16v-167h-16a83 83 0 0 1-83-83z m-468 33h434a115 115 0 0 0 99 98v102a115 115 0 0 0-99 98h-434a115 115 0 0 0-98-98v-102a113 113 0 0 0 98-98z m218 33a117 117 0 1 0 117 117 116 116 0 0 0-117-117z m0 200a83 83 0 1 1 83-83 82 82 0 0 1-83 83z m-200-133a50 50 0 1 0 50 50 49 49 0 0 0-50-50z m0 66a17 17 0 1 1 17-17 16 16 0 0 1-17 17z m400-66a50 50 0 1 0 50 50 49 49 0 0 0-50-50z m0 66a17 17 0 1 1 16-17 16 16 0 0 1-16 17z m-455 266l-11 25 664 310 41-90-521-245h79l456 214 85-182-89-41v-37l133 62-211 452-724-336 62-131z m611 425l28-60-664-310-28 60z" horiz-adv-x="998" />

<glyph glyph-name="thumbs-up" unicode="&#xe805;" d="M659-134h-626v610l203 0c24 0 81 89 114 211 8 33 24 57 48 74 33 16 65 24 90 16 57-16 89-57 89-114v-187h220c32 0 65-16 81-57 16-16 16-49 16-89 0-138-89-464-235-464z m-529 98h529c8 0 32 16 65 81 65 130 81 293 65 334h-309v284c0 8-8 16-17 16-8 0-16 0-16 0 0 0-8-8-8-16 0-24-73-284-203-284l-106 0v-415z" horiz-adv-x="1000" />

<glyph glyph-name="phone-ring" unicode="&#xe877;" d="M907-31a98 98 0 0 1 0 145l-117 116a97 97 0 0 1-71 33 101 101 0 0 1-72-33l-67-67c-6 3-12 6-17 9-8 3-15 8-22 11a713 713 0 0 0-173 158 386 386 0 0 0-58 91c17 16 34 33 50 48l18 18a105 105 0 0 1 33 73 103 103 0 0 1-33 73l-58 59c-6 6-13 13-19 20-12 13-25 26-39 39a100 100 0 0 1-71 31 105 105 0 0 1-71-31l-73-73a153 153 0 0 1-46-98 391 391 0 0 1 26-157 908 908 0 0 1 162-270 999 999 0 0 1 331-259 499 499 0 0 1 186-55h13a158 158 0 0 1 122 53l1 1a394 394 0 0 0 37 38 211 211 0 0 1 28 27z m-66 12a488 488 0 0 1-41-42 101 101 0 0 0-79-34h-10a498 498 0 0 0-166 51 941 941 0 0 0-312 244 871 871 0 0 0-153 253 293 293 0 0 0-23 133 103 103 0 0 0 29 62l72 72a47 47 0 0 0 32 16 48 48 0 0 0 33-16c13-12 24-24 38-38l20-20 57-57a42 42 0 0 0 0-67l-18-18c-18-18-35-35-53-52l-1-1a43 43 0 0 1-11-47c0-1 0-1 1-2a439 439 0 0 1 69-111 779 779 0 0 1 187-171c9-5 18-10 26-14 8-4 14-8 21-12 1 0 1-1 2-1a46 46 0 0 1 20-5 45 45 0 0 1 32 14l73 73a40 40 0 0 0 64 0l116-116a43 43 0 0 0-1-68 262 262 0 0 0-24-26z m-323 665a27 27 0 0 0 32 23 317 317 0 0 0 176-92 340 340 0 0 0 92-176 28 28 0 0 0-22-33h-5a29 29 0 0 0-28 24 264 264 0 0 1-76 145 275 275 0 0 1-146 77 27 27 0 0 0-23 32z m426-246a487 487 0 0 1-134 260 479 479 0 0 1-260 134 27 27 0 0 0-23 33 27 27 0 0 0 33 22 537 537 0 0 0 440-440 28 28 0 0 0-23-32h-4a27 27 0 0 0-29 23z" horiz-adv-x="999" />

<glyph glyph-name="user-filled" unicode="&#xe878;" d="M267 583c0 148 119 267 266 267s267-119 267-267-119-266-267-266-266 119-266 266z m533-400h-543c-142 0-257-119-257-266v-67h1067v67c0 147-120 266-267 266z" horiz-adv-x="1067" />

<glyph glyph-name="eye" unicode="&#xe879;" d="M994 370c-9 12-222 299-494 299s-485-287-494-299c-8-12-8-28 0-39 9-13 222-300 494-300s485 287 494 300c8 11 8 27 0 39z m-494-273c-200 0-374 191-425 253 51 62 224 253 425 253 200 0 374-191 425-253-51-62-224-253-425-253z m0 451c-109 0-198-89-198-198s89-198 198-198 198 89 198 198-89 198-198 198z m0-330c-73 0-132 59-132 132s59 132 132 132 132-59 132-132-59-132-132-132z" horiz-adv-x="1000" />

<glyph glyph-name="trash" unicode="&#xe87f;" d="M831 625l-44-682a102 102 0 0 0-104-93h-430a102 102 0 0 0-103 94l-44 681h-67a38 38 0 0 0-39 38h0a38 38 0 0 0 39 37h858a38 38 0 1 0 0-75z m-83 0h-559l37-653a51 51 0 0 1 52-47h380a51 51 0 0 1 52 47z m-280-75h0a36 36 0 0 0 37-35v-480h0a36 36 0 0 0-37-35h0a36 36 0 0 0-36 35v480h0a36 36 0 0 0 36 35z m-156 0h0a38 38 0 0 0 38-35l23-482h0a32 32 0 0 0-31-33h-1a35 35 0 0 0-36 33l-27 482h0a34 34 0 0 0 32 35z m312 0a34 34 0 0 0 35-33q0-1 0-2l-27-480h0a38 38 0 0 0-39-35 34 34 0 0 0-34 33q0 1 0 2l27 480a38 38 0 0 0 38 35z m-260 300h208a102 102 0 0 0 104-100v-50h-416v50a102 102 0 0 0 104 100z m5-75a31 31 0 0 1-31-30v-45h261v45a31 31 0 0 1-32 30z" horiz-adv-x="936" />

<glyph glyph-name="credit-card-with-cvv-code" unicode="&#xe880;" d="M868 268a105 105 0 0 1 13 1 28 28 0 0 1 10 2c6 4 6 10 5 16a12 12 0 0 1-14 10 35 35 0 0 0-21 2 30 30 0 0 0-10 38 24 24 0 0 0 18 13 43 43 0 0 0 13 0 12 12 0 0 1 11 4 18 18 0 0 1 3 16c-4 9-16 8-23 8a66 66 0 0 1-39-12 58 58 0 0 1-16-70 54 54 0 0 1 50-28z m68 10c4-10 18-8 27-8a12 12 0 0 1 12 8c1 1 1 2 2 3l18 51 9 23c3 7 5 15-3 20a31 31 0 0 1-14 1 13 13 0 0 1-14-7c-2-7-4-14-6-21-3-13-7-26-10-40-4 19-10 38-16 57a16 16 0 0 1-4 9 21 21 0 0 1-14 2 18 18 0 0 1-15-3 12 12 0 0 1-2-13z m111 0c4-10 18-8 27-8a12 12 0 0 1 12 8c1 1 1 2 2 3l18 51 9 23c3 7 5 15-3 20a31 31 0 0 1-14 1 13 13 0 0 1-14-7c-2-7-4-14-6-21-4-13-7-26-10-40-4 19-10 38-16 57a16 16 0 0 1-5 9 21 21 0 0 1-13 2 18 18 0 0 1-15-3 12 12 0 0 1-2-13z m-81-277a330 330 0 0 0-185 57h-624a70 70 0 0 0-70 70v379h597a334 334 0 0 0 136 123h-733v63a70 70 0 0 0 70 70h1000a70 70 0 0 0 70-70v-62h-115a332 332 0 0 0 157-433l45-42v537a157 157 0 0 1-157 157h-1000a157 157 0 0 1-157-157v-565a157 157 0 0 1 157-157h998l-60 56a331 331 0 0 0-129-26z m-749 378a23 23 0 0 1-23-23v-68a23 23 0 0 1 23-23h424a333 333 0 0 0-4 114z m1221-430l-233 217a292 292 0 1 1-83-79l238-222a57 57 0 0 1 78 84z m-473 576a193 193 0 1 0-193-192 193 193 0 0 0 193 192z" horiz-adv-x="1456" />

<glyph glyph-name="wallet" unicode="&#xe881;" d="M1122-28h0a122 122 0 0 0-122-122h-878a122 122 0 0 0-122 122v708a98 98 0 0 0 98 97h492l197 72a24 24 0 0 0 31-15l21-57h88a98 98 0 0 0 98-97v-49h0a98 98 0 0 0 97-98z m-1024 756h0a49 49 0 0 1 0-97h88c1 0 1 0 1 0l268 97z m709-4l-26 71h0l-50-18h0l-134-49h-1l-269-97h514z m169-45a49 49 0 0 1-49 49h-70l35-98h84z m49-97h-927a97 97 0 0 0-49 13v-623a73 73 0 0 1 73-73h878a73 73 0 0 1 73 73v171h-97a98 98 0 0 0 0 195h97v195a49 49 0 0 1-48 49z m48-390v97h-97a49 49 0 1 1 0-97z m-97 73h49v-49h-49z" horiz-adv-x="1122" />

<glyph glyph-name="credit-card" unicode="&#xe882;" d="M60 549l809 183-11 50a26 26 0 0 1-31 20l-758-171a26 26 0 0 1-20-31c3-17 7-34 11-51z m-6 127l767 172a68 68 0 0 0 82-51l80-356h-48l-37 161-808-183 50-221 4-20a15 15 0 0 1 18-11l6 2v-47l-1-1a57 57 0 0 0-68 43l-97 430a68 68 0 0 0 52 82h0z m199-247a68 68 0 0 1-68-69v-442a68 68 0 0 1 68-68h787a68 68 0 0 1 68 68v442a68 68 0 0 1-68 69h-787z m770-198v90a10 10 0 0 1-10 10h-202a11 11 0 0 1-10-10v-90a11 11 0 0 1 10-11h202a11 11 0 0 1 10 11z m-148-274a11 11 0 0 0-11 11v21a11 11 0 0 0 11 10h138a11 11 0 0 0 10-10v-21a11 11 0 0 0-10-11h-138z m-193 0a11 11 0 0 0-10 11v21a10 10 0 0 0 10 10h138a11 11 0 0 0 11-10v-21a11 11 0 0 0-11-11z m-192 0a11 11 0 0 0-10 11v21a10 10 0 0 0 10 10h138a11 11 0 0 0 11-10v-21a11 11 0 0 0-11-11z m-192 0a11 11 0 0 0-11 11v21a10 10 0 0 0 11 10h138a11 11 0 0 0 10-10v-21a11 11 0 0 0-10-11z" horiz-adv-x="1108" />

<glyph glyph-name="store-phone" unicode="&#xe884;" d="M907-31a98 98 0 0 1 0 145l-117 116a97 97 0 0 1-71 33 101 101 0 0 1-72-33l-67-67c-6 3-12 6-17 9-8 3-15 8-22 11a713 713 0 0 0-174 158 386 386 0 0 0-57 91c17 16 34 33 50 48l18 18a105 105 0 0 1 33 73 103 103 0 0 1-33 73l-58 58c-6 7-13 14-19 21-12 13-25 26-39 39a100 100 0 0 1-71 31 105 105 0 0 1-71-31l-73-73a154 154 0 0 1-46-98 391 391 0 0 1 27-157 908 908 0 0 1 161-270 999 999 0 0 1 331-259 499 499 0 0 1 186-55h14a158 158 0 0 1 121 53l1 1a394 394 0 0 0 37 38 211 211 0 0 1 28 27z m-66 12a488 488 0 0 1-40-43 101 101 0 0 0-80-33h-10a498 498 0 0 0-166 50 941 941 0 0 0-312 245 871 871 0 0 0-153 253 293 293 0 0 0-23 133 103 103 0 0 0 29 62l72 72a47 47 0 0 0 32 16 48 48 0 0 0 33-16c13-12 25-24 38-38l20-20 57-57a49 49 0 0 0 17-34 49 49 0 0 0-17-33l-18-18c-18-18-34-35-52-52l-1-1a43 43 0 0 1-12-47c0-1 0-1 1-2a439 439 0 0 1 69-111 779 779 0 0 1 187-171c9-6 18-10 26-15 8-3 15-7 21-11 2 0 2-1 3-1a46 46 0 0 1 20-5 45 45 0 0 1 31 14l73 73a40 40 0 0 0 64 0l117-117a43 43 0 0 0-1-67 262 262 0 0 0-25-26z m-323 665a27 27 0 0 0 32 23 317 317 0 0 0 176-92 340 340 0 0 0 92-176 28 28 0 0 0-22-33h-5a29 29 0 0 0-28 24 264 264 0 0 1-76 146 275 275 0 0 1-146 76 27 27 0 0 0-23 32z m426-246a487 487 0 0 1-135 260 479 479 0 0 1-260 134 27 27 0 0 0-22 33 27 27 0 0 0 32 22 537 537 0 0 0 440-439 28 28 0 0 0-22-33h-5a27 27 0 0 0-28 23z" horiz-adv-x="999" />

<glyph glyph-name="store-directions" unicode="&#xe885;" d="M985 386l-450 450a51 51 0 0 1-70 0h0l-450-450a50 50 0 0 1 0-71l450-450h0a50 50 0 0 1 71 0l450 450a50 50 0 0 1 0 71z m-382-199v125h-200v-151h-99v200a50 50 0 0 0 49 50h250v125l175-175z" horiz-adv-x="1000" />

<glyph glyph-name="store-working-hours" unicode="&#xe886;" d="M422-150a422 422 0 1 0 422 422 422 422 0 0 0-422-422z m0 795a371 371 0 1 1 371-371 372 372 0 0 1-371 371z m-99 172h82v-165h34v165h82a16 16 0 0 1 17 17 16 16 0 0 1-17 16h-198a16 16 0 0 1-15-16 16 16 0 0 1 15-17z m236-418l-130-130-94 95a16 16 0 0 1-24 0 17 17 0 0 1 0-23l118-118 154 153a16 16 0 0 1 0 24 17 17 0 0 1-23 0z m370 198l-132 133a17 17 0 0 1-24-24l55-54-114-114a16 16 0 1 1 22-25l0 0 114 114 54-54a16 16 0 0 1 23 0 16 16 0 0 1 0 22z" horiz-adv-x="933" />

<glyph glyph-name="caret" unicode="&#xe887;" d="M26-150c-5 0-15 0-21 5-10 11-10 27 0 37l458 458-458 458c-10 10-10 26 0 37s27 10 37 0l474-474c10-10 10-26 0-37l-474-474c0-10-10-10-16-10z" horiz-adv-x="526" />

<glyph glyph-name="gift-wrapping" unicode="&#xe888;" d="M496 579h-5c2-1 4-1 5 0z m45 50c0-11-5-22-13-30l-1-1c-7-7-16-11-26-12h5c10 1 18 5 25 12l14 13c2 6 3 12 3 18 0 13-6 26-15 35l-27 29-6-5 28-28c8-9 13-19 13-31z m-74-36l-1 2c-5 4-9 11-11 17l-57 56c-8 8-12 19-12 30s4 22 12 30l2 1c8 8 19 13 30 13s21-4 29-13l36-35 5 6-35 35c-20 19-51 19-71 0l-1-3c-10-9-15-21-15-35 0-13 5-26 15-35l69-70c3-2 5-4 8-6h5c-3 2-6 5-8 7z m74 136c8 7 19 12 30 12s22-5 29-12l2-2c8-8 12-19 12-30s-4-22-12-30l-56-56c-3-6-7-13-11-17l-2-1c-2-2-5-5-8-6h5c2 1 5 4 8 6l69 70c10 9 15 22 15 35 0 13-5 26-15 35l-1 2c-10 9-22 15-35 15s-26-6-36-15l-35-35 6-6 35 35z m-48-142h5c-10 1-18 4-25 11l-2 2c-8 8-12 19-12 30s4 22 12 30l28 28-4 5-29-28c-9-9-15-22-15-35 0-6 2-13 4-18l13-14c7-7 16-10 25-11z m11-9h5-5z m3 9h18c3 1 6 4 8 6l2 2c4 4 8 11 11 17l-14-14c-7-7-16-10-25-11z m-13 106l6 6 5-6-5-5z m-26-95l-13 13c2-6 6-13 11-17l1-2c2-2 5-4 8-6h18c-9 2-18 5-25 12z m41-19h330v-182h4v-8h-4v-305c0-50-40-91-90-91h-245v-4h-8v4h-246c-49 0-89 40-89 91v305h-4v8h4v182h330c-7 1-14 4-21 8h-317v-504c0-54 44-98 97-98h500c54 0 98 44 98 98v504h-318c-6-5-14-7-21-8z m-11 8h3-3z m2-1h7-5c-1 1-2 1-2 0z m-4-7c-7 1-15 4-21 8h-5c7-4 14-7 21-8h5z m-3 8c2 0 2-1 4-1h2-6z m11-8h5c8 1 15 3 21 8h-5c-6-5-14-7-21-8z m0 4v-4c8 1 15 4 21 8h-27c-2 0-3 0-4 1h-18c6-4 13-8 21-8v4h7z m-8-195h8v-395h-8z m4 190h-4v-182h8v182h-4z m-2 0h2-4 2z m2 0h4-1c-1 1-2 0-3 0z m-4 1h7-7z m0-586h8v-4h-8z m0 586z m8 0s-1 0 0 0z m-1 0s1 0 0 0l1 4h-8v-4h7z m-342-183h335v-8h-335z m343 0h335v-8h-335z m-347 0h4v-8h-4z m682 0h4v-8h-4z m-343 0h8v-8h-8z" horiz-adv-x="1000" />

<glyph glyph-name="free-samples" unicode="&#xe889;" d="M498 482v-95l4-4c34-25 51-60 51-106 0-28-6-57-18-86l-2-5 204-36 84 478-478 85-31-177h5c108-3 181-31 181-54z m-149 221l462-81-81-462-187 33c11 28 17 56 17 84 0 49-18 86-53 112l-1 2v91c0 32-80 58-185 62l28 159z m399-570l-221 39-2-2c-11-21-24-39-39-57l-4-4 269-114 190 447-129 55-64-364z m182 304l-184-432-251 107c14 15 25 34 35 52l223-40 64 362 113-49z m-789-60h308c20 0 37 17 37 37v50c0 30-85 55-190 55s-191-25-191-55v-50c-1-20 16-37 36-37z m-29 87c0 22 78 47 183 47 102 0 180-24 182-46v-51c0-15-13-29-29-29h-307c-16 0-29 14-29 29v50z m375-85l-3 2-3-2c-9-10-22-16-35-16h-303c-13 0-26 5-35 16l-2 2-3-2c-32-23-49-58-49-102 0-66 36-135 94-182v-27c0-10 8-18 18-18h267c11 0 18 8 18 18v36c52 47 84 112 84 173 0 44-16 79-48 102z m-41-270l-2 0v-40c0-6-4-10-10-10h-267c-6 0-10 4-10 10v29l-2 1c-57 47-93 115-93 178 0 41 14 71 42 93 10-10 25-15 39-15h302c15 0 28 5 39 16 29-23 43-53 43-93 0-60-30-123-81-169z" horiz-adv-x="1000" />

<glyph glyph-name="apple-pay" unicode="&#xe88a;" d="M445 721c28 35 47 82 41 129-41-2-89-27-119-60-25-30-49-79-43-124 47-5 92 20 121 55m41-66c-66 4-123-37-154-37s-80 35-133 35c-68-2-131-39-166-102-70-123-19-305 51-404 33-49 74-104 127-102 51 2 70 33 131 33s78-33 133-31c54 2 89 49 123 100 39 57 54 111 54 113-2 2-107 41-107 162-2 102 82 151 86 153-45 70-119 78-145 80m575 138c144 0 244-99 244-242 0-144-102-244-248-244h-159v-252h-115v738h278z m-163-390h131c100 0 156 54 156 146 0 94-56 147-156 147h-132v-293h1z m436-197c0 93 72 152 201 160l149 7v41c0 61-41 96-108 96-64 0-103-31-113-78h-106c6 98 90 170 223 170 131 0 215-68 215-178v-371h-105v88h-2c-32-60-100-98-170-98-110 0-184 67-184 163z m350 48v43l-133-7c-67-4-104-34-104-81s40-78 98-78c78 0 139 53 139 123l0 0z m209-400v90c7-2 27-2 35-2 51 0 78 21 95 76 0 2 10 33 10 33l-195 539h119l137-439h2l137 439h117l-201-568c-47-131-100-172-211-172-8 2-36 2-45 4l0 0z" horiz-adv-x="2350" />

<glyph glyph-name="10-on-favourite-product" unicode="&#xea01;" d="M875 557h-111l-33 88q-1 4-5 7t-8 3h-21v108h111v0q6 0 10 4t4 10-4 10-10 5h-249v0q-8 0-12-6l-77-102q-4-6-3-12t6-10 11-2 10 5l73 98h101v-108h-18q-11 0-14-10l-33-85-222-16q-6 0-9-4l-367-364q-5-4-5-10t5-11l300-300q4-5 11-5v0q5 0 10 5l127 127v-55q0-14 10-25t24-10h388q15 0 25 10t10 25v595q0 13-10 24t-25 10v1z m-215 68h48l24-69h-99z m-344-739l-280 280 353 349 209 15 83-85-17-207z m373 336q4 3 5 9l4 59h112v-170h-221z m191-295q0-3-1-4t-3-1h-389q-2 0-4 1t-1 3v86l77 78h258q9 0 16 7t7 16v184q0 9-7 16t-16 7h-117l11 130q0 6-4 12l-65 64h233q3 0 4-1t1-3v-595z m-302 428q24 0 41 17t17 41-17 41-41 17-41-17-17-41 17-41 41-17z m0 87q12 0 20-9t8-20-8-20-20-8-20 8-9 20 9 20 20 9z m-222-109q0 6-5 10t-11 3-10-5-3-11l26-253q1-5 5-9t10-4h2q6 1 10 6t3 11z m-103-60q-23 0-39-16t-16-39 16-38 39-16 39 16 15 38-15 39-39 16z m18-72q-8-8-18-8t-17 8-8 17 8 18 17 8 18-8 7-18-7-17z m186-64q22 0 38 16t17 39-17 38-38 17-39-17-16-38 16-39 39-16z m-18 73q7 7 18 7t18-7 7-18-7-18-18-7-18 7-7 18 7 18z" horiz-adv-x="909.8" />

<glyph glyph-name="10-voucher" unicode="&#xea02;" d="M368 233l5 186 41-1-5-186z m178 184q-30 1-48-24t-19-70q-1-44 15-70t47-28 48 27q15 25 16 68t-14 70-45 27z m18-92q-1-33-5-47-5-18-18-17t-17 15-3 45 4 43q6 18 18 18t17-14 4-43z m83 25l-20 1-5-23 20 0q-1-10-1-18l-14 1-6-23h23q6-28 21-44 20-22 53-23 22 0 47 10l2 1 1 36q-15-8-25-10t-18-2q-15 0-23 7t-16 23l64-2 4 23-71 2q0 9 1 18l73-2 5 22-73 2q12 28 42 28 16-1 37-7l8 35q-28 6-45 7-38 1-61-22-17-16-23-40z m533 79l-246 213q-5 4-11 4l-760 3q-7 0-11-4t-5-11l-1-625q0-7 5-12t12-4l759 3q6 0 11 4l246 210q5 4 5 13l2 194q0 7-6 12z m-28-199l-236-201-737-4 0 592 738-3 237-205z m-146-5q33 0 56 24t24 56-24 57-56 23-57-23-23-57 23-56 57-24z m-34 114q14 14 34 14t34-14 13-34-13-34v0q-14-13-34-13t-34 13-13 34 13 34z" horiz-adv-x="1328.4" />

<glyph glyph-name="amazon" unicode="&#xea03;" d="M460-115q-120 0-235 33-83 23-156 61-38 20-58 34-9 7-11 18t5 21 18 11 20-5q28-20 72-41 84-42 179-62 131-28 265-10 168 21 332 111 11 6 21 2t16-13 3-21-13-16q-225-123-458-123z m349-35q-8 0-14 4t-10 11q-6 10-3 21t14 15q24 13 46 40 18 23 29 48t8 33q-5 6-27 12-27 8-53 10-35 2-62-9-11-5-22 0t-14 15 0 21 16 15q38 15 87 12 44-2 80-18t45-36q9-27-4-65-13-38-42-73t-61-53q-6-3-13-3z m-484 209q-63 0-109 26t-71 73-25 112q0 102 59 162 48 50 138 75 58 16 153 23 0 25-1 37-3 16-9 25-10 15-35 19t-47-8q-25-13-31-43-4-17-15-29t-28-14q-4-1-8 0l-116 14q-23 6-33 22t-6 37q18 96 95 149t197 53q43 0 85-10 70-17 114-57 29-27 43-62 12-30 16-70 2-24 2-71l-1-207q0-29 10-49 6-14 25-37l4-6q13-21 11-39t-17-31q-34-32-90-78-12-9-27-11t-29 5q-5 1-9 5-32 26-53 57-43-40-87-56t-106-16h1z m92 607q27 0 51-11t38-32 18-48q1-17 1-54v-16q0-11-7-19t-18-9q-114-9-178-26-75-21-110-63-38-44-38-118t40-115 110-42q59 0 96 17t81 61q3 5 9 7t12 2q13 0 20-11l13-18q12-16 18-24 10-13 27-26 33 23 85 70l-1 3q-22 30-32 48-14 32-14 73v207q0 44-2 63-2 32-11 54-10 26-31 45-29 27-77 42-40 11-84 11-79 0-136-27-82-38-101-126l99-12q9 43 42 68t80 26z m273-471h-1v0h1z m-299-19q-11 0-23 2-31 8-51 34-24 30-24 78 0 45 21 77 26 43 87 61 41 9 97 9 11 0 19-8t8-20v-35q0-42-3-63-6-36-23-65-16-33-45-51t-63-19z m79 206q-31-2-55-8-35-10-51-30t-16-54q0-24 9-39t25-19 36 5q21 11 33 34l1 2q13 21 16 48 2 16 2 53v8z" horiz-adv-x="932.8" />

<glyph glyph-name="auto-replenishment-renew-product" unicode="&#xea04;" d="M449 298v-128q0-8 6-13t12-5h184q9 0 14 5t5 13v128q0 7-5 13t-14 5h-184q-7 0-12-5t-6-13z m33-15h155v-98h-155v98z m41 244l-22-55h-80q-8 0-14-6t-6-13v-413q0-8 6-13t14-6h275q9 0 15 6t6 13v413q0 8-6 13t-15 6h-78l-20 54q-2 6-6 9t-9 2h-7v58h66v0q8 0 12 5t5 11-5 12-12 5h-164v0q-8 0-13-7l-51-67q-4-6-3-13t7-11 12-3 11 7l46 61h56v-58h-6q-4 0-8-2t-6-8z m161-473h-250v386h250v-386z m-101 418h-47l13 32h22z m528-226l-86 87q-6 5-12 5-4 0-7-1-10-5-10-16 0-119-59-221-58-99-158-157-102-60-221-60-88 0-168 33t-142 97q-5 4-12 4t-12-5-5-11 5-12q65-65 150-101 88-38 184-38v0q96 0 184 37 84 36 149 101t102 150q29 69 35 144l60-59q5-6 12-6t12 5 5 12-6 12z m-553 513q88 0 168-33t142-95q5-5 12-5t11 5 5 12-5 11q-65 65-149 101-88 37-184 37v0 0q-96 0-184-37-84-36-149-101t-101-150q-29-69-36-144l-59 60q-6 5-13 5t-11-5-5-12 5-11l87-87q3-4 6-5t6 0h1q8 0 13 7 3 4 3 10 0 119 59 220 58 99 158 157 102 60 220 60z" horiz-adv-x="1115.9" />

<glyph glyph-name="bag-full" unicode="&#xea05;" d="M695 597h-172v43q0 42-21 76t-55 55-76 21-77-21-55-55-20-76v-43h-176l-43-586q0-43 22-81t59-58 80-22h415q44 0 81 22t59 58 22 81z m-424 43q0 27 14 50t36 36 50 14 50-14 36-36 14-50v-43h-200v43z" horiz-adv-x="736.9" />

<glyph glyph-name="bag" unicode="&#xea06;" d="M695 597h-172v43q0 42-21 76t-55 55-76 21-77-21-55-55-20-76v-43h-176l-43-586q0-43 22-81t59-58 80-22h415q44 0 81 22t59 58 22 81z m-424 43q0 27 14 50t36 36 50 14 50-14 36-36 14-50v-43h-200v43z m305-738h-415q-28 0-54 15t-40 39-15 54l40 535h127v-59q0-11 8-19t18-8 19 8 7 19v59h200v-59q-1-11 7-19t19-8 18 8 8 19v59h123l39-535q0-29-15-54t-40-39-54-15z" horiz-adv-x="736.9" />

<glyph glyph-name="birthday-gift" unicode="&#xea07;" d="M520 542q9 5 17 11 23 16 45 43t35 55q16 31 21 57 5 35-11 58-18 26-57 26-35 0-81-20-41-18-76-42-16-11-27-23-12 12-27 23-34 24-75 42-48 20-82 20v0q-39 0-57-26-16-23-10-58 4-26 19-56t36-56q22-27 45-43 8-6 17-11h-252v-522q0-46 23-85t62-62 85-23h433q46 0 84 23t62 62 23 85v522h-252z m-143 31q-12 18-9 42t18 47q16-24 18-47t-9-42q-4-5-9-10-5 5-9 10z m53 134q32 23 70 38 42 19 70 19 24 0 34-14 12-18 1-53-9-32-33-67t-51-53q-20-15-43-22t-43-8q-12 0-22 2l6 8q13 20 14 46 1 23-8 46-7 19-20 36 11 11 25 22z m-262 43q11 14 34 14 28 0 70-19 38-15 70-38 14-11 25-22-13-17-20-36-9-24-8-46 1-27 15-46l5-7q-11-3-22-3-20 0-43 8t-43 22q-26 18-50 53t-34 67q-11 35 1 53z m575-730q0-28-10-54t-31-46-46-30-53-12h-433q-28 0-54 12t-46 30-30 46-11 54v493h714v-493z m-139 239h-113v109h-13q11 23 3 44-4 13-15 23l-6 7-6-7q-1-2-5-7-5-8-7-17-7-22 1-43h-13v-110h-88v110h-14q11 23 3 44-4 13-14 23l-7 7-6-7q-1-2-5-7-5-8-7-17-7-22 2-43h-12v-110h-115v-303h437v304z m-293 155q6-10 6-24-1-9-6-19-10 22 0 43z m-13-155v92h27v-92h-27z m164 155q6-10 4-24 0-9-5-19-10 22 0 43h1z m-15-155v92h27v-92h-27z m-218-121q8-14 23-22t30-7 30 8 23 22q7-13 22-21t29-8 29 8 23 21q7-14 22-22t30-8 30 8 22 22q7-12 19-20t27-10v-69h-403v70q14 1 25 9t19 19z m304 36v-5q0-17-13-30t-30-12-31 12-13 30v5h-17v-3q0-18-13-31t-30-12-30 12-13 31v3h-17v-2h-1v-3q0-18-13-31t-30-12-31 12-13 31v4h-17v-3q0-15-10-27t-26-15v113h402v-113q-16 2-26 14t-11 28v3h-17v1z m-348-202v50h403v-50h-403z" horiz-adv-x="771.8" />

<glyph glyph-name="booster-points-" unicode="&#xea08;" d="M235 167q-6 6-13 5t-10-7-2-10 4-9l83-83q4-4 10-4t11 4 4 11-5 11z m-89-68q-5 7-14 4v0q-4-1-8-4l-119-121q-5-4-5-10t4-11 11-4 10 5l120 120q5 4 5 10t-4 11z m91-98v0q-4-1-8-5l-121-121q-5-4-5-10t5-11 10-4 10 5l121 121q5 4 5 10t-5 11-12 4z m432 589l-145-136 46-50q23-26 49-28 21-1 37 14t16 33-11 38h1q29-14 51 7 16 14 16 34 1 23-21 45z m-30-176q-10-9-22-8-15 1-31 18l-25 26 46 43 24-26q15-15 16-29t-8-24z m52 74q-23-22-52 9l-12 14 43 40 17-18q24-26 4-45z m257 237q-3 16-10 29t-16 22v0q-12 7-30 11-50 12-139-6-54-11-100-28-24-8-35-15l-3-3q-22-17-104-98-87-87-125-131l-3-3-159-1q-7 0-11-4l-165-166q-5-4-5-10t4-11 11-4l159 1 79-77v-2h1q2-2 4-3l76-76 1-2 5-4 75-75v-160q0-6 5-10t10-5 11 5l166 165q4 5 4 11v160l3 2q44 39 130 125 81 82 99 104v0q6 9 17 35 22 51 34 110 16 72 11 114z m-74-224q-3-4-5-9l-238-239-237-79-70 70 78 237 239 238 9 4q29 12 73 23 53 14 95 18 51 4 77-6 7-2 11-5l2-2q9-9 12-30 6-41-12-117-15-59-34-103z" horiz-adv-x="948.5" />

<glyph glyph-name="buy" unicode="&#xea09;" d="M651 302q-4 3-11 3t-11-7l-193-254-121 122q-5 4-11 4t-11-4-5-11 5-11l134-135q5-4 11-4h1q7 1 12 6l204 269q4 4 3 11t-7 11z m240 204h-240v108q0 48-24 89t-64 65-90 24-89-24-66-65-24-89v-108h-236l-58-431q0-46 17-87t49-72 73-49 86-17h496q45 0 86 17t73 49 49 72 17 87z m-565 108q0 39 19 73t54 54 74 20 74-20 53-54 20-73v-108h-294v108z m395-733h-496q-53 0-97 26t-70 70-27 97l55 401h208v-61q0-7 5-12t11-5 11 5 5 12v61h294v-61q0-7 5-12t11-5 11 5 4 12v61h213l50-401q0-53-26-97t-70-70-97-26z" horiz-adv-x="945.7" />

<glyph glyph-name="calendar" unicode="&#xea0a;" d="M592 438h134v-134h-134v134z m0-164h134v-134h-134v134z m58 518h-7q-16 0-27-11t-12-28v-74h85v74q0 16-11 28t-28 11z m-221-351h134v-134h-134v134z m-198 312q0 16-12 28t-28 11h-6q-17 0-28-11t-12-28v-74h86v74z m35-313h133v-135h-133v135z m-167-333h134v-134h-134v134z m3 165h134v-134h-134v134z m651 407h-64v-83q0-15-11-27t-28-11h-7q-16 0-27 11t-12 27v83h-373v-83q0-15-12-27t-28-11h-6q-17 0-28 11t-12 27v83h-69q-32 0-54-23t-22-53v-677q0-31 22-54t54-22h505l248 251v502q-1 31-23 53t-53 23z m38-581h-149q-31 0-49-19t-18-50v-141h-501q-15 0-27 9t-12 25v602h757v-426h-1z m-525 178h133v-134h-133v134z m-164 160h134v-133h-134v133z m327-158h134v-134h-134v134z m-167-168h134v-133h-134v133z" horiz-adv-x="828" />

<glyph glyph-name="change-favproduct" unicode="&#xea0b;" d="M876 557h-112l-33 88q-1 4-5 7t-8 3h-21v108h111v0q6 0 10 4t4 10-4 10-10 5h-249v0q-8 0-12-6l-77-102q-4-6-3-12t6-10 11-2 10 5l73 98h101v-108h-18q-11 0-14-10l-33-85-222-16q-6 0-9-4l-367-364q-5-4-5-10t5-11l300-300q4-5 11-5v0q5 0 10 5l127 127v-55q0-14 10-25t24-10h389q14 0 24 10t10 25v595q0 13-10 24t-24 10v1z m-216 68h48l24-69h-99z m-344-739l-280 280 353 349 209 15 83-85-17-207z m373 336q4 3 5 9l4 59h112v-170h-221z m191-295q0-3-1-4t-3-1h-389q-2 0-4 1t-1 3v86l77 78h258q9 0 16 7t7 16v184q0 9-7 16t-16 7h-117l11 130q0 6-4 12l-65 64h234q2 0 3-1t1-3v-595z m-302 428q24 0 41 17t17 41-17 41-41 17-41-17-17-41 17-41 41-17z m0 87q12 0 20-9t8-20-8-20-20-8-20 8-9 20 9 20 20 9z m-222-109q0 6-5 10t-11 3-10-5-3-11l26-253q1-5 5-9t10-4h2q6 1 10 6t3 11z m-64-75q-16 15-39 15t-39-16-15-39 15-38 39-16 39 16 16 38-16 40v0z m-21-57q-8-8-18-8t-17 8-8 17 8 18 17 8 18-8 7-18-7-17z m186-64q22 0 38 16t17 39-16 38v0q-17 17-39 17t-39-17-16-38 16-39 39-16z m-18 73q7 7 18 7t18-7 7-18-7-18-18-7-18 7-7 18 7 18z m2058-324l-110 784q-1 5-5 9t-9 4h-49v58h81v0q5 0 10 4t5 10-5 11-10 4h-329v0q-6 0-11-4t-4-10 4-11 11-4h80v-58h-48q-6 0-10-4t-5-9l-15-115-145-10q-6-1-9-5l-368-363q-5-5-5-11t5-11l301-300q3-5 10-5v0q6 0 10 5l118 119-12-88q-1-8 3-13t11-5h485q7 0 11 5t4 13z m-311 855h108v-58h-108v58z m-319-855l-280 280 353 349 209 15 83-85-7-83q0-1 0-3l0-3-9-118z m387 457h70v-192h-153l70 71q4 3 4 9z m-112-222q1 0 2 0h193q6 0 11 5t5 11v220q0 6-5 11t-11 6h-81l6 76q1 6-4 12l-92 94q-5 4-12 4l-45-3 12 96h239l92-661h-424l2 17z m-127-222l9 64q3-1 5-1h421q4 0 5 1l10-65h-450v1z m115 572q-24 0-42-17t-17-41 18-41 41-17 41 17 17 41-17 41-41 17z m0-86q-12 0-20 8t-9 20 9 20 20 9 20-9 8-20-8-20-20-8z m-222-52q-1 6-5 10t-12 3-10-5-2-11l26-253q0-5 5-9t10-4h2q5 1 10 6t3 11z m-143-75q-15-17-15-40t16-38 39-16 38 16 16 38-16 39-38 16-40-15z m57-57q-7-8-17-8t-18 8-8 17 8 18 18 8 17-8 8-18-8-17z m148 30q-16-17-16-39t16-39 38-16 39 16 16 39-16 38-39 17-38-16z m56-57q-8-7-18-7t-17 7-8 18 8 18 17 7 18-7 7-18-7-18z m-636 257l91-84h-245q-6 0-10-5t-4-10 4-11 10-5h245l-91-84 20-21 130 120-130 122z m-107-191h-244l91 85-20 22-131-122 131-121 20 22-91 85h244q6 0 11 4t4 11-4 10-11 4z" horiz-adv-x="2495.9" />

<glyph glyph-name="checkbox-v" unicode="&#xea0c;" d="M470-150q-33 0-57 24l-389 390q-24 23-24 57t24 57 57 23 56-24l326-325 538 708q20 27 53 31t60-15 30-54-15-59l-594-781q-11-15-26-23t-33-9h-6z" horiz-adv-x="1145.4" />

<glyph glyph-name="christmas-personal-shopper" unicode="&#xea0d;" d="M561 252q-2 6-3 10h0q4 3 6 8t0 10l-129 323 42 23q9-13 23-20t30-7q28 0 48 20t20 48-20 48-48 20q-18 0-33-8t-24-23q-179 76-193 82-21 7-36 6-29-2-40-31-20-54-193-485-3-8 3-15-19-58-13-147 4-51 15-103t28-94q4-8 13-8h4q7 2 13 9 2 4 7 15 7 15 13 20t20 3h2q23-30 57-58 23-20 45-33t30-14l28-1q12 0 22 1 19 1 74 45 29 23 58 50 10 2 33 6h1q25 4 37 7 22 5 38 15 42 26 61 90 11 30-4 87-9 34-35 101z m-31 455q17 0 28-12t12-28-12-28-28-12-28 12l28 15q8 5 8 13t-9 13l-28 12q11 15 29 15z m-299 44q5 13 17 13 8 0 22-5 10-4 219-93l1-1-65-35-6 15q-2 5-8 8t-11 0-8-8 1-10l101-256q-35 15-88 22t-115 8q-7 0-11-4t-4-10 4-10 11-4q85-1 150-15 50-12 70-28l11-28q-42 18-101 29-66 13-139 13t-139-18q-45-12-91-34l10 24 9 4q52 26 96 38 6 1 9 6t1 11-6 9-11 2q-41-11-84-31 138 344 155 388z m-157-778q-8-6-13-17-26 75-32 160-2 46 2 85t15 64q29 15 48 23 33 14 68 22-41-33-66-69-35-50-35-101v0q0-73 25-133 3-11 11-22-14-3-23-12z m281-53q-25-20-42-31-13-9-18-10-14-1-39-1l-6 1q-6 3-23 13-20 14-39 31-57 47-77 95-22 55-22 122 0 48 38 95 26 33 65 62 18 13 29 15 17-40 54-74 71-68 195-103-1-53-7-83-9-42-31-64-30-31-77-68z m218 154v-1q-11-37-29-57-16-18-38-26-15-5-42-9 22 30 29 82 5 31 7 97v1q0 6-5 10t-9 4-9-3-5-7q-113 33-178 94-31 30-46 63 16 1 35 1 78 0 146-14 58-13 92-31l14-39q23-61 32-92 14-51 6-73z" horiz-adv-x="604.4" />

<glyph glyph-name="click-and-collect" unicode="&#xea0e;" d="M445 476q0 31-15 58t-43 42-58 16-58-16-43-42-15-58 15-58 43-43 58-15 58 15 43 43 15 58z m-116-86q-35 0-60 25t-25 61 25 60 60 25 61-25 25-60-25-61-61-25z m661-118q0 3-2 6l-49 102q-4 8-13 8h-299q11 42 11 86 0 60-22 115t-62 100-94 70-113 32l-28 1v0l-28-1q-13-2-25-4v0q-55-9-104-36t-86-71-56-97-20-110q0-67 27-128 25-58 72-102l182-182q15-16 38-16t38 16l74 73v-225q0-24 17-42t41-17h392q25 0 42 17t17 42v256q26 12 39 38 15 29 11 69z m-654-189v0l-1-1q-7-7-16-7t-16 7l-182 182q-44 41-67 95t-24 114q0 70 31 130t86 102 124 52v0q10 2 22 3l25 1 26-1q73-7 134-47 59-40 93-103 36-64 36-137 0-43-13-85h-148q-10 0-14-9l-49-101q-2-3-2-7-2-41 14-70 10-20 28-31z m545-203h-392q-11 0-20 9t-8 20v248q33-2 60 16 34-38 81-41 22-1 43 5t40 21q35-28 76-28l10 1q45 3 79 41 16-11 35-15 12-2 25-1v-247q0-12-8-20t-21-9z m45 311q-16-7-35-3t-33 17q-4 5-12 4t-11-7q-13-18-30-29t-37-12q-38-4-72 29-4 4-11 4t-10-4q-15-15-34-22t-37-5q-40 3-69 40-4 6-11 6t-12-5q-12-12-31-15t-34 2q-17 9-27 28t-8 49l43 89h460l45-90q1-28-7-48t-27-28z" horiz-adv-x="989.9" />

<glyph glyph-name="clock" unicode="&#xea0f;" d="M905 504q-36 85-101 150t-150 101q-86 37-182 37t-184-37q-85-36-150-101t-101-150q-37-87-37-183t37-183q36-85 101-150t150-101q87-37 183-37t183 37q85 36 150 101t101 150q37 87 37 183t-37 183z m-127-490q-59-60-135-93t-160-34v104h-36l-1-104q-80 4-152 37t-130 90q-59 59-92 134t-35 158l119-1 0 37-119 1q4 81 37 154t89 131 131 90 152 36v-118h37v119q84-2 160-34t134-92 92-133 36-157l-120 1v-36l120-1q-3-82-36-157t-91-132z m-331 327h-117v-36h154v242h-37v-206z" horiz-adv-x="942" />

<glyph glyph-name="complete-birth-date" unicode="&#xea10;" d="M625 434v215h-29q22 46 9 88-7 27-28 46l-8 9-10-9q-3-5-8-13-9-15-15-31-12-45 6-90h-28v-215h-182v215h-30q22 46 10 88-8 26-29 46l-9 9-8-9q-5-5-9-13-9-15-14-31-14-45 5-90h-26v-215h-222v-584h846v584h-221z m-55 321q19-25 15-57-2-24-15-49-18 32-14 64 2 23 14 42h0z m-32-129h63v-189h-63v189z m-262 129q18-25 16-57-3-24-17-49-16 32-13 64 2 23 14 42z m-30-129h62v-189h-62v189z m576-752h-798v108h798v-108z m0 132h-798v149q29 1 54 17t38 43q14-29 42-46t61-17 60 17 42 48q15-28 42-45t60-17 59 17 42 44q14-28 42-46t60-17 59 17 43 46q14-26 39-44t55-18v-148z m0 172q-34 3-58 29t-24 61v1h-25v-2q0-38-26-64t-63-26-63 26-27 64v3h-24v-1q0-37-26-63t-63-27-64 27-26 63v1h-24v-3l-2-1v-1q0-37-26-63t-63-26-63 26-26 63v4h-25v-1q0-34-23-60t-57-30v232h798v-232z" horiz-adv-x="846.4" />

<glyph glyph-name="complete-email" unicode="&#xea11;" d="M1238 534q0 51-19 98t-57 84-84 56-99 20h-699q-53 0-100-20t-84-56-56-84-20-98l-20-425q0-51 20-98t56-85 85-56 98-20h740q52 0 99 20t84 56 57 85 20 98z m-259 218q43 0 82-16t70-45l-474-474q-12-12-29-12t-28 12l-473 473q30 29 69 46t84 16h699z m20-862h-740q-59 0-109 30t-80 79-29 110l19 424q0 70 41 127l471-472q23-23 56-23t57 24l472 472q41-58 41-128l20-424q0-59-29-110t-80-79-110-30z" horiz-adv-x="1257.6" />

<glyph glyph-name="contribute" unicode="&#xea12;" d="M96 442h348q6 0 10 4t4 11-4 10-10 4h-348q-6 0-10-4t-5-10 5-11 10-4z m0-87h348q6 0 10 5t4 10-4 10-10 5h-348q-6 0-10-5t-5-10 5-10 10-5z m348-64h-348q-6 0-10-4t-5-11 5-10 10-4h348q6 0 10 4t4 10-4 11-11 4h1z m-292-257l21-19 83 89v-239q0-7 4-11t10-4 10 4 4 11v239l83-89 21 19-118 128z m-152-14h85q5 0 9 5t4 10-4 11-9 4h-56v544h482v-544h-40q-5 0-10-4t-4-11 4-11 10-4h69v603h-540v-603z m174 772v-120q0-6 4-10t11-4 10 4 4 10v92h482v-545h-89q-5 0-10-5t-5-10 5-10 10-4h118v602h-540z" horiz-adv-x="713" />

<glyph glyph-name="crm-and-e-crm-on-going-promotions" unicode="&#xea13;" d="M692 623h-183v29q0 38-19 70t-51 51-70 19-70-19-51-51-19-70v-29h-185l-44-598q0-35 13-67t39-57 56-38 67-13h383q35 0 67 13t57 38 38 57 13 67z m-435 29q0 31 15 56t41 41 56 15 56-15 40-41 15-56v-29h-223v29z m301-774h-383q-40 0-73 19t-54 54-20 74l42 570h159v-96q0-7 4-10t10-4 10 4 4 10v96h223v-96q0-7 4-10t10-4 10 4 4 10v96h157l41-570q0-41-20-74t-54-54-74-19z m-120 305q-22 0-38-16t-16-38 16-38 38-16 39 16 16 38-16 38-39 16z m0-79q-9 0-17 7t-7 18 7 18 17 8 17-8 7-18-7-18-17-7z m-63 153q0 23-16 38t-38 16-39-16-16-38 16-39 39-16 38 16 16 39z m-79 0q0 11 7 18t17 7 18-7 7-18-7-18-17-7-17 7-8 18z m151 54l-163-236h29l161 236h-27z" horiz-adv-x="733.2" />

<glyph glyph-name="crown" unicode="&#xea14;" d="M1036 585q0 33-23 56t-55 22-54-22-22-56q0-29 19-50t46-25q-21-70-56-119-62-84-153-84-65 0-116 63-39 47-65 126-18 51-26 98 37 6 62 34t25 66q0 41-29 70t-70 28-70-28-29-70q0-39 25-67t63-33q-8-47-26-98-27-79-65-126-51-63-116-63-91 0-153 86-36 50-56 121 28 6 46 26t18 50q0 33-23 55t-55 23-55-23-23-55q0-30 19-51t47-25l88-480v-5q7-50 36-91t73-65 96-23h316q52 0 96 23t73 65 36 91l90 481q29 4 48 25t18 50z" horiz-adv-x="1035.9" />

<glyph glyph-name="direction-arrow" unicode="&#xea15;" d="M1057 383q1 3 2 11l1 5q1 3 1 5v4l-2 6q-1 8-2 11-5 11-13 18l-331 333q-17 16-40 16t-40-16-16-40 17-40l235-236h-481q-106 0-196-53-87-52-139-139-53-90-53-196v-166q0-23 17-39t39-17 40 17 16 39v166q0 75 38 140 37 61 98 98 65 38 140 38h481l-235-237q-17-15-17-39t17-40 39-16 40 16l331 332q8 9 13 19z" horiz-adv-x="1060.7" />

<glyph glyph-name="download-loccitane-mobile-app" unicode="&#xea16;" d="M413 415q-5 4-11 2t-9-6l-103-162v382q0 6-4 10t-10 5-11-5-4-10v-382l-103 162q-2 5-8 6t-11-2q-6-4-6-12 0-4 1-7l130-204q4-6 12-6t12 6l130 204q2 4 1 10t-6 9z m139 221v0 1q0 42-21 77t-57 57-77 21h-231-10q-42 0-78-21t-57-57-21-78v-630q0-42 21-78t57-57 78-21h241q42 1 77 22t56 56 22 77v631z m-28-630v0 0q0-26-10-49t-28-41-41-27-48-11h-232v0h-9q-25 0-49 10t-41 28-28 41-9 49v630q0 25 9 49t28 41 41 28 49 10h10v0h230v0h1q24 0 48-10t41-28 28-41 10-48v-631 0z m-248 42q-20 0-34-14t-14-34 14-33 34-14 33 14 14 33-14 34-33 14z m0-66q-8 0-14 5t-5 13 5 14 14 5 13-5 5-14-5-13-13-5z" horiz-adv-x="551.1" />

<glyph glyph-name="facebook" unicode="&#xea17;" d="M504 506h-175v78q0 25 14 37 11 9 28 9h122v161l-177 1q-108 0-157-70-35-50-35-128v-88h-123v-164h123v-492h205v492h158z" horiz-adv-x="505.1" />

<glyph glyph-name="fav-full" unicode="&#xea18;" d="M1054 483q0 84-42 156-40 70-110 111-72 42-157 42-62 0-119-24-56-24-99-66-42 42-98 66-57 24-120 24-84 0-156-42-70-41-111-111-42-72-42-156 0-63 24-120 24-55 66-97l-2-1h2l399-399q16-16 38-16t38 16l399 399q42 42 66 98 24 57 24 120z" horiz-adv-x="1054.3" />

<glyph glyph-name="fav-on" unicode="&#xea19;" d="M489-134q13-16 35-16t38 15l400 400q59 59 80 140 21 78 0 155-21 81-80 140-43 43-99 67t-118 24-118-24-100-67q-63 59-145 81t-160 0q-84-24-147-95-53-70-69-146-15-74 6-144t77-131z" horiz-adv-x="1052.4" />

<glyph glyph-name="fav" unicode="&#xea1a;" d="M1054 483q0 84-42 156-40 70-110 111-72 42-157 42-62 0-119-24-56-24-99-66-42 42-98 66-57 24-120 24-84 0-156-42-70-41-111-111-42-72-42-156 0-63 24-120 24-55 66-97l-2-1h2l399-399q16-16 38-16t38 16l399 399q42 42 66 98 24 57 24 120z m-527-571l-394 394v1q-36 35-55 81t-18 95q0 68 33 125t91 91 125 34q50-1 95-20t81-53q17-18 42-18t43 18q34 35 80 53t96 19q67 0 125-33t91-91 33-125q0-50-18-95t-55-81z" horiz-adv-x="1054.3" />

<glyph glyph-name="female" unicode="&#xea1b;" d="M666 459q0 90-46 168-44 75-119 120-78 45-168 45t-168-45q-76-45-120-120-45-78-45-168 0-85 41-160 40-72 109-118t155-53v-78h-115q-11 0-20-9t-8-20 8-20 20-8h115v-115q0-11 8-20t20-8 19 8 9 20v115h114q12 0 20 8t8 20-8 20-20 9h-114v78q84 6 154 52t110 119q41 75 41 160z m-314-275q-8 8-19 8t-20-8q-70 5-129 43t-93 99q-34 61-34 133 0 75 38 139 37 63 99 99 65 38 139 38t139-38q63-36 99-99 38-64 38-139 0-72-35-134-33-60-92-98t-130-43z" horiz-adv-x="665.1" />

<glyph glyph-name="foundation-donation" unicode="&#xea1c;" d="M762 335q38 48 63 89t40 82q22 60 15 113t-38 95-81 62-102 15-95-40q-7-5-18-16-57 54-133 57-45 1-85-17t-70-51-42-77-4-87q7-42 26-85 15-31 38-67 50-78 119-147 30-29 94-88l43-41q4-4 11-4t11 4q124 101 208 203z m-218-168l-7 6-25 25q-63 58-93 88-68 66-114 140-23 34-35 62-19 40-25 77t4 73 33 63 57 42 69 15h4q65-2 111-48 1-2 4-5l4-5q4-5 11-6t13 4l13 11q11 11 16 15 36 28 79 33t85-12 67-52 32-79-13-96q-15-40-39-78t-59-84q-78-95-192-189z m544-21l-20 242-9 71-1 2q-5 15-14 26-15 21-33 24-26 3-47-24-10-13-20-31-18-33-20-62l4-118q-11-5-21-12l-3-2-67-104q-4-4-34-12-23-5-30-9-14-7-36-41-8-15-18-31l-57-112 29-16 58 112q11 20 23 37t16 21 23 7q23 6 33 9 16 8 23 18l63 98q7 4 14 7t11 1 5-8q3-9 3-23l-93-178 30-16 96 186v4q1 52-26 65-4 3-9 4l-4 112q3 23 18 50 10 17 15 23l1 0q9 12 14 11t11-8 10-18l9-66 20-241q6-66-34-123-18-28-40-45l-158-98 18-28 158 98q7 5 17 14 18 18 32 39 48 67 40 145z m-718-82v1q-9 16-19 31-22 34-34 41-8 4-31 9-29 8-34 11l-67 105-3 2q-9 7-21 12l5 118q-2 29-21 62-10 19-20 31-21 27-46 24-19-3-34-24-9-12-14-26l-1-2-9-71-20-242q-7-78 40-145 22-31 48-52l159-99 18 28-156 98q-24 17-44 48-37 56-32 120l21 241 9 66q3 10 9 18t11 8 14-11l1 0q9-11 16-24 15-27 18-50l-5-111q-5-1-8-4-28-14-27-65v-5l97-185 29 16-92 178q0 14 3 23 2 7 5 8t10 0 15-8l63-98q6-10 23-18 9-3 32-9h1q18-5 22-7t16-21 23-37l58-112 30 16z" horiz-adv-x="1088.3" />

<glyph glyph-name="free-deluxe-sample" unicode="&#xea1d;" d="M321 626q5-4 11-4t10 6l50 67h64v-67h-8q-5 0-9-2t-6-8l-22-60h-87q-7 0-13-5t-6-13v-438q0-7 6-13t13-5h292q9 0 14 5t6 13v438q0 6-5 12t-11 6q7 2 9 8l83 142q3 6 1 12t-6 9-12 1-9-7l-82-142q-3-6-2-12t7-9l3-2h-80l-22 60q-2 5-6 8t-8 2h-10v67h73v0q7 0 11 4t4 10-4 11-11 4l-174 1v0q-9 0-12-7l-55-71q-3-6-2-12t5-9z m284-513h-270v416h270v-416z m-105 445h-57l15 40h27z m-144-182v-137q0-6 5-11t12-5h197q6 0 11 5t5 11v137q0 7-5 12t-11 5h-197q-8 0-12-5t-5-12z m30-14h170v-110h-170v110z m85 369q7 0 11 5t4 10v31q0 6-4 10t-11 5-11-5-4-10v-31q0-6 4-10t11-5z m-160-163q5-8 14-8 3 0 7 2 5 4 7 10t-1 11l-82 141q-3 5-9 6t-11-1-7-9 1-12z m-242-32l206-119q4-2 7-2 10 0 13 7 4 6 2 12t-7 9l-206 119q-6 3-12 1t-9-6-1-12 7-9z m223-215q0 7-4 11t-11 4h-262q-6 0-10-4t-5-11 5-11 10-4h262q6 0 11 4t4 11z m3-101q-2 5-9 7t-11-2l-206-119q-5-3-7-9t2-11q3-8 12-8 4 0 8 2l206 119q5 3 7 9t-2 12z m34-144q-4 3-11 2t-9-7l-79-137q-3-6-1-12t7-9q3-2 7-2 9 0 13 7l79 138q4 6 2 12t-8 8z m142-18q-6 0-11-5t-4-11v-177q0-6 4-10t11-5 11 5 4 10v177q0 7-4 11t-11 5z m163 12q-4 5-10 7t-11-2-7-9 1-11l79-136q4-8 13-8 4 0 8 2 5 3 6 9t-1 12z m239 36l-202 118q-6 2-12 0t-9-6-1-11 7-10l202-117q4-2 8-2 9 0 13 8 3 5 1 11t-7 9z m54 230h-260q-6 0-11-4t-4-11 4-11 11-4h260q6 0 10 4t5 11-5 11-10 4z m-278 88q4-7 13-8 4 1 8 3l203 117q6 3 7 9t-1 12-9 6-12-1l-204-118q-5-2-7-9t2-11z m123 183q5 0 10 4l22 22q5 5 5 11t-5 10-10 5-11-5l-22-22q-4-4-4-10t4-11 11-5v1z m-204 73q-7 2-12-2t-7-8l-13-48q-1-7 1-12t10-7l3 0q6 0 9 3t6 8l13 47q2 7-2 12t-8 7z m-170-103q2 0 4 1 7 1 10 6t1 12l-11 41q-2 5-7 8t-11 2-10-7 0-12l10-40q2-5 6-8t8-3z m-202-2q5-5 11-5t11 5 4 10-5 11l-58 58q-4 5-10 5t-11-5-5-10 5-11z m-86-142q-6 2-12-1t-6-9 1-12 9-6l125-34 4-1q5 1 9 4t5 8-1 11-9 7z m127-174q-1 5-7 8t-11 2l-192-52q-7-1-9-6t-2-11 6-9 8-3l4 1 192 51q7 2 10 7t1 12z m41-152q4 4 4 10t-4 11-11 4-10-4l-50-50q-5-4-5-10t5-11 11-5 10 5z m112-89q-6 2-11-1t-7-9l-33-124q-2-6 1-11t9-7h4q5 0 9 2t5 9l33 123q2 6-1 12t-9 6z m171 26q-2 7-7 9t-12 2-9-7-1-11l30-113q1-4 5-7t9-4l5 1q5 1 8 7t2 12z m136 72q-4 5-10 5t-11-5-4-11 4-10l47-47q5-5 11-5t10 4 5 11-5 11z m218 101l-181 49q-6 2-11-2t-7-9 1-11 9-7l182-48 4-1q4 0 8 3t6 9-1 11-10 6z m-210 167q2-5 6-8t8-3l4 1 192 51q7 1 10 6t1 12-7 9-12 2l-191-52q-7-2-9-7t-2-11z" horiz-adv-x="942" />

<glyph glyph-name="free-full-size-product" unicode="&#xea1e;" d="M459 545h-133l-34 93q-2 5-6 7t-8 3h-22v115h117v0q5 0 10 4t4 10-4 10-11 5h-261v0q-7 0-12-6l-81-108q-3-5-2-11t6-9 11-3 9 6l77 102h107v-114h-20q-5 0-9-3t-6-8l-35-93h-137q-8 0-13-6t-6-14v-656q0-8 6-14t13-5h440q8 0 14 5t5 14v657q0 8-5 13t-14 6z m-243 73h51l27-73h-106z m233-739h-420v636h420v-636z m-373 402v-206q0-8 5-12t12-5h295q7 0 12 5t5 12v206q0 6-5 11t-12 5h-295q-7 0-12-5t-5-11z m30-14h269v-180h-269v180z" horiz-adv-x="477.5" />

<glyph glyph-name="frequency-bonus-points" unicode="&#xea1f;" d="M248 347q-49 0-95-19t-80-54-54-81-19-95 19-95 54-80 80-54 95-19 95 19 81 54 54 80 19 95-19 95-54 81-81 54-95 19z m0-469q-59 0-109 30t-81 80-29 110 29 110 81 80 109 29 110-29 80-80 29-110-29-110-80-80-110-30z m18 320q3 3 5 2 28-4 44-20 3-3 9-3t9 3 4 9-4 9q-12 12-28 19t-35 9q-3 0-5 2t-2 5v18q0 6-4 9t-8 4-9-4-4-9v-19q0-7-6-8-27-5-44-21t-20-38q-2-25 16-48t49-31q5-1 5-7v-78q0-4-2-6t-6-2q-8 2-17 5-16 6-26 16-1 1-4 2t-5 1-6-1-4-2q-3-4-3-9t3-10l4-2q24-22 59-25 3-1 5-3t2-5v-18q0-6 4-9t9-4 8 4 4 9v20q0 6 7 8 27 5 45 23 6 6 11 14t6 16l1 6q3 26-15 48t-49 28q-6 2-6 7v80q1 4 3 6z m-28-77q0-3-2-5t-5-2-4 1q-14 7-23 17-12 15-10 30 1 11 10 20t24 15q4 1 7-2t3-5v-69z m29-45q3 3 6 1 17-6 25-16 11-14 9-30v0q0-6-4-13-9-13-28-20l-4-2q-2 0-5 2t-3 6v67q1 4 4 5z m5 589h84v-84q0-5 4-10t10-4 10 5 5 9v84h83q7 0 11 4t4 10-4 11-11 4h-83v83q0 7-5 11t-10 4-10-4-4-11v-83h-84q-5 0-9-4t-4-11 4-10 9-4z m390-246h-62v62q0 6-4 10t-10 4-11-4-4-10v-62h-62q-6 0-10-5t-4-10 4-10 10-4h62v-62q0-6 4-10t11-4 10 4 4 10v62h62q6 0 10 4t4 10-4 10-10 5z m84 204h-61v62q-1 6-6 10t-10 5-10-5-4-10v-62h-62q-6 0-10-4t-4-10 4-11 10-4h62v-61q0-7 4-11t10-4 11 4 5 11v61h61q7 0 11 4t4 11-4 10-11 4z" horiz-adv-x="759.9" />

<glyph glyph-name="gift" unicode="&#xea20;" d="M604 571q14 23 14 50t-13 49-36 36-49 13q-22 0-42-9-14 37-47 60t-74 22-73-22-47-60q-20 9-42 9-27 0-49-13t-36-36-13-49 16-50h-113v-565q0-42 21-78t57-57 78-21h399q42 0 78 21t57 57 21 78v565h-107z m-458 50q0 20 15 34t34 15q24 0 39-19 4-6 12-8t15 1 11 8 6 14q1 32 24 54t55 22 56-22 24-54q1-8 6-14t12-9 14 0 12 8q15 19 39 19 20 0 34-15t15-34-14-35-33-15v0h-319v0q-20 1-38 16t-19 34z m66-99l-162-163v163h162z m-162-516v282l231 234h381v-265l-355-357h-151q-28 0-53 14t-39 39-14 53z m505-106h-179l286 287v-181q0-28-14-53t-39-39-54-14z" horiz-adv-x="711.1" />

<glyph glyph-name="give-products-review" unicode="&#xea21;" d="M843 792h-216q-29 0-49-20t-20-48v-108l-89-70q-3-3-5-7t1-8q2-9 13-9h365q28 0 48 19t20 48v135q0 29-20 48t-48 20z m40-203q0-17-12-29t-28-12h-327l65 52q5 3 5 10v114q0 17 12 29t29 12h216q17 0 29-12t11-29v-135z m-107 149q-16 0-41-22-26 22-42 22t-29-9q-12-9-18-22t-6-23q0-39 43-76 21-18 46-31v0q2-2 6-2t6 2v0q24 13 46 31 42 37 42 76 0 11-6 23t-18 22q-13 9-29 9z m-42-134q-24 14-42 33-25 24-25 47 0 7 6 16 9 11 21 11 3-1 13-8t18-15q4-4 10-4t9 4q9 8 18 15t14 8q12 0 20-11 6-9 6-16 0-23-25-47-18-19-43-33z m-308-109h-123l-32 86q0 4-5 7t-8 3h-20v104h108v0q5 0 10 4t5 10-5 11-11 4h-241v0q-7 0-12-6l-74-100q-4-4-3-10t5-10 11-3 10 6l70 94h98v-104h-18q-10 0-13-10l-34-86h-125q-8 0-13-6t-6-12v-608q0-8 6-14t13-5h407q8 0 14 5t5 14v608q0 7-5 12t-14 6z m-224 66h46l23-66h-94z m214-682h-387v587h386v-587h1z m-345 370v-190q0-7 4-12t12-5h274q6 0 11 5t5 12v190q0 7-5 12t-11 5h-274q-7 0-12-5t-4-12z m29-13h247v-164h-247v164z" horiz-adv-x="909.8" />

<glyph glyph-name="gold-customer-service-phone-number" unicode="&#xea22;" d="M665 620v0l-192 101q-31 17-66 17-39 0-73-20t-52-56l-265-504q-19-34-17-72t22-69 53-50l194-101q30-16 64-16 39 0 72 20t52 54l267 507q18 34 16 71t-22 69-53 49z m33-177v0l-266-505q-14-27-41-43t-58-17q-27 0-51 13v0 0h-1v0l-192 102q-20 11-34 28t-21 38-5 43 13 42l265 505q15 27 42 43t58 16q27 0 52-13l192-101q20-10 34-27t21-38 4-43-12-43z m-439-359q-19 9-40 2t-31-25-3-39 25-31q12-7 25-7 7 0 15 3 21 6 31 26t3 40-25 31z m5-63q-6-12-20-16t-25 2-16 20 2 25q4 9 12 14t17 5 16-4q12-7 16-20t-2-26z m306 307l-83 61 2 104q0 8-7 13t-16-1l-84-62-98 35q-9 3-15-3t-4-15l32-98-63-83q-6-8-2-15t14-8h104l59-87q4-6 11-6l2 1q10 1 12 9l32 99 101 30q8 3 9 11t-6 15z m-119-30q-8-2-9-9l-26-78-47 67q-4 6-12 6h-82l50 66q4 6 3 13l-26 79 78-28q6-3 13 2l67 49-3-83q0-8 7-12l66-48z m478 321q-17 55-54 100t-88 71q-6 3-12 1t-9-7-1-11 8-9q62-33 100-92 37-59 40-127 3-71-31-135-2-5-1-11t8-8q3-2 6-2 9 0 13 8 28 51 33 109t-12 113z m-191 76q-5 3-11 2t-8-7-1-11 7-9q30-16 53-43t33-60 6-68-19-66q-3-5-1-11t7-8q4-2 7-2 9 0 12 8 20 36 23 76t-8 79-38 71-62 49z" horiz-adv-x="942" />

<glyph glyph-name="google" unicode="&#xea23;" d="M496 271q-25 17-45 39t-19 29q0 12 1 18 3 8 13 18t31 27q42 33 64 75t22 88q0 40-11 76t-34 62h22q7 0 13 4l63 46q5 3 7 10t0 14-8 11-12 4h-279q-45 0-91-16-51-17-90-50t-61-74-22-85q0-63 30-113t82-80 116-32q-5-14-5-29 0-29 16-55h-4q-61 0-117-19t-98-54-63-79q-17-35-17-70t18-66q20-36 61-63t100-41q60-16 127-16 61 0 114 16 83 24 132 80t50 127q0 67-24 112t-82 86z m-352-206q0 33 25 61t65 45 88 17h3q30 0 60-10l18-12q40-27 54-40 21-20 27-41 3-12 3-24 0-123-181-123-45 0-82 17t-58 46-22 64z m86 619q23 25 56 25h3q30-1 58-22t48-55 25-75q4-35-3-66t-24-51q-23-26-57-26h-1q-30 1-58 23t-48 57-26 75q-3 35 4 65t23 50z m819-257h-137v137h-91v-137h-137v-91h137v-136h91v136h137v91z" horiz-adv-x="1048.8" />

<glyph glyph-name="in-store-parties" unicode="&#xea24;" d="M760 699q-25 39-60 63t-77 28q-58 8-111-23-44 25-91 25-66 0-119-45-59 39-124 30-42-4-77-28t-60-62-35-85-4-96 27-93 53-74q39-36 85-50v-65q0-5 4-9t9-4h22q0-3 0-5 10-17 12-31 3-8 3-24v-1q1-18 4-28 4-18 15-39t27-35q9-8 28-18v0q16-9 24-14 12-10 20-27t10-31q1-10-2-26v0q-3-20-2-32 2-21 13-43 5-7 13-7 4 0 7 2l2 2 7 1 7 7q8 16 20 27 8 6 24 15h1q19 11 29 20 15 13 26 35t14 42q2 12 0 32v1q-1 18 0 27 3 15 12 33t19 31q5 8 16 22h1q12 15 18 24 11 16 22 35 1 3 1 5h21q5 0 9 4t4 9v69q0 3-1 7 50 12 92 51 33 32 53 75t27 92-4 96-34 85z m-257 40q45-29 71-82t26-114q0-23-5-47l-1-8q-2-13-7-26l-6-18q-13-33-35-59t-50-43v0q-35-20-75-20-47 0-87 28l-6 3q-34 27-56 69t-28 91q-2 15-2 30 0 52 18 98t53 77q48 46 108 46 44 0 82-25z m-60-446v-39h-41v39h41z m-413 216q-5 44 4 86t30 77 52 54 65 24q9 1 18 1 43 0 83-24l-10-11-25-40-24-62-5-27-4-52q2-61 27-115l6-10 14-25 19-23 24-24q-33-23-70-27-35-5-69 8t-63 40-48 67-24 83z m165-230h40v-41h-40v41z m110-224v0q-17 8-24 14-12 10-21 27t-12 31q-1 9-2 25v0q-1 15-3 25-3 16-11 33h17q6 1 10 4t4 10v64q34 9 64 33 23-14 47-21v-61q0-5 5-9t9-5h20q-2-12-8-24-3-6-12-18v0q-12-17-16-29-9-20-9-44t9-42q4-11 17-26v0q10-12 14-19 6-12 6-30t-7-32q-4-9-14-22-14-19-19-34 0 8 2 23 3 19 2 31-2 21-13 42t-28 36q-9 8-27 18v0z m225 110q-12-14-18-23-11-16-22-37t-13-41q-1-12 0-33v0q1-17 0-27-2-15-11-32t-21-27q-7-7-24-16l-9-5q12 15 17 27 7 19 7 43t-8 42q-5 10-18 25v0q-10 12-13 19-6 12-6 30t6 34q4 8 14 23t15 24q7 16 10 34h20q7 0 10 5t4 9v62q18 4 33 13 16-9 32-12-3-5-3-9v-69q0-6 4-10t10-3h16q-12-21-31-45z m70 73h-41v41h41v-41z m170 284q-7-60-37-108t-74-72-93-18q-19 2-35 8l9 7 26 26 29 43q32 62 32 135v7l-1 23-4 30-8 29-10 28v0l-7 12-14 25-8 11-23 27-16 14q41 18 82 14 49-6 86-40t55-88 11-113z" horiz-adv-x="799.4" />

<glyph glyph-name="info" unicode="&#xea25;" d="M471 792q-96 0-183-37-85-36-150-101t-101-150q-37-87-37-183t37-183q36-85 101-150t150-101q87-37 183-37t183 37q85 36 150 101t101 150q37 87 37 183t-37 183q-36 85-101 150t-150 101q-87 37-183 37z m0-65q110 0 204-55 92-55 147-147 55-94 55-204t-55-204q-55-92-147-147-94-55-204-55t-204 55q-92 55-146 147-56 94-56 204t56 204q54 92 146 147 94 55 204 55z m-94-567l8 30 47 170 0 6 1 6q0 14-9 18t-36 5v20q21 2 62 6t58 8l32 6-59-215q-7-29-10-39-6-27-6-35t3-10 9-3q11 0 28 20t30 40l17-10q-38-54-57-74-32-30-69-30-20 0-37 13t-16 39q0 9 4 28v1z m178 430q15-16 15-37t-15-36-36-15-36 15-15 36 15 36 36 15 36-14z" horiz-adv-x="942" />

<glyph glyph-name="instagram" unicode="&#xea26;" d="M471 707q91 0 123 0 28 0 68-2 51-3 87-17 31-12 54-35t35-54q14-36 17-87 2-40 2-68 0-32 0-123t0-124q0-27-2-66-3-52-17-88-12-31-35-54t-54-35q-36-14-87-17-40-1-68-1-32-1-123-1t-123 1q-28 0-67 1-52 3-88 17-31 12-54 35t-35 54q-14 36-17 88-1 39-1 66-1 33-1 124t1 123q0 28 1 68 3 51 17 87 12 31 35 54t54 35q36 14 88 17 39 2 67 2 32 0 123 0z m0 85q-91 0-126-1-28 0-68-2-66-2-114-21t-84-55-55-84-21-114q-2-40-2-68-1-35-1-126t1-126q0-28 2-68 3-66 21-114t55-84 84-55 114-21q40-2 68-2 35-1 126-1t126 1q28 0 68 2 66 2 114 21t84 55 55 84 21 114q2 40 2 68 1 35 1 126t-1 126q0 28-2 68-2 66-21 114t-55 84-84 55-114 21q-40 2-68 2-35 1-126 1z m0-229q-65 0-121-33t-88-88-33-121 33-121 88-88 121-33 121 33 88 88 33 121-33 121-88 88-121 33z m0-399q-42 0-79 21t-57 57-21 79 21 79 57 57 79 21 79-21 57-57 21-79-21-79-57-57-79-21z m308 408q0-23-16-39t-40-17-40 17-17 40 17 40 40 16 40-16 16-41z" horiz-adv-x="942" />

<glyph glyph-name="label" unicode="&#xea27;" d="M375 733q86 0 160-43 71-42 113-113 43-75 43-160 0-88-45-163t-123-117q-14-7-23-21t-9-30v-135l-38 39q-16 16-36 24t-42 8-42-9-36-24l-38-38v134q0 16-8 30t-23 22q-78 41-124 116t-45 164q0 85 43 160 42 71 113 113 75 43 160 43z m168-832v0 0z m-168 891q-102 0-189-51-85-50-134-135-52-87-52-189 0-106 55-196 55-89 146-136v-207q0-11 8-20t21-8 19 8v0l91 90 0-1q14 16 35 16t36-15h-1l91-90q9-8 21-8t20 8 8 20v208q91 47 145 135 55 90 55 196 0 102-51 189-49 85-135 135-87 51-189 51v0z m-247-375q0-67 33-124t90-90 124-33 124 33 90 90 33 124-33 124-90 90-124 33-124-33-90-90-33-124z" horiz-adv-x="749.8" />

<glyph glyph-name="linkedin" unicode="&#xea28;" d="M226-150h-200v640h200v-640z m-105 720h-1q-36 0-63 15t-42 40-15 56q0 49 34 80t88 31 87-31 33-79-33-80-88-32z m905-720h-227v331q0 67-27 106-30 41-87 41-40 0-70-25-24-21-38-55-3-8-4-20-1-8-1-25v-353h-224l1 300q1 306-1 340h224v-101q8 24 32 48 28 26 69 41 46 18 99 18 73 0 129-31 59-33 91-96 34-67 34-163v-356z" horiz-adv-x="1025.8" />

<glyph glyph-name="locator" unicode="&#xea29;" d="M399 792q-108 0-201-54-90-54-144-144-54-93-54-201 0-84 33-159 32-74 91-130l239-239q15-15 36-15t36 15l239 239q58 56 91 130 33 75 33 159 0 108-55 201-52 90-142 144-93 54-202 54z m236-646q0-1-1-1l-235-235-235 235q-52 49-79 113t-28 135q0 93 47 173 45 77 122 122 80 47 173 47t172-47q78-45 123-122 47-80 47-173 0-71-28-134t-78-114v1z m-236 413q-46 0-84-22t-61-61-22-83 22-84 61-61 84-22 84 22 60 61 23 84-23 83-60 61-84 22z m0-276q-30 0-55 15t-39 40-15 55 15 55 39 40 55 14 55-14 40-40 15-55-15-55-40-40-55-15z" horiz-adv-x="797.6" />

<glyph glyph-name="locator_airport" unicode="&#xea2a;" d="M402 792q-108 0-202-55-91-53-145-145-55-93-55-202 0-84 32-159t92-132l228-228q22-21 51-21t49 20l228 228q60 58 92 133t32 159q0 109-54 202-54 92-145 145-93 55-203 55z m340-402q0-71-27-134t-79-112l-228-230q-3-1-6-1t-5 1l-229 230q-51 48-78 112t-27 134q0 92 46 171 45 77 122 123 79 46 171 46t172-46q76-46 122-123 46-79 46-171z m-170 0l-138 66v80q0 14-9 23t-22 10-23-10-10-23v-80l-137-66q-12-6-16-19t1-24q4-8 12-13t17-5q4 0 7 1l116 14v-81l-44-17q-10-4-15-14t0-19q3-8 9-12t15-5h135q8 1 15 5t9 12q4 10-1 19t-15 14l-44 17v80l115-13q11-3 22 2t16 15q6 12 1 24t-17 19h1z" horiz-adv-x="804" />

<glyph glyph-name="locator_bike" unicode="&#xea2b;" d="M712 608q38 0 65 27t27 65-27 65-65 27-65-27-27-65 27-65 65-27z m-482-298q-63 0-116-31t-84-83-30-116 30-116 84-84 116-30 116 30 83 84 31 116-31 116-83 83-116 30v1z m0-391q-43 0-80 22t-59 59-22 80 22 80 59 58 80 22 80-22 59-58 22-80-22-80-59-59-80-22z m643 391q-63 0-116-31t-83-83-31-116 31-116 83-84 116-30 116 30 83 84 31 116-31 116-83 83-116 30v1z m0-391q-43 0-80 22t-59 59-22 80 22 80 59 58 80 23 80-22 59-59 22-80-22-80-59-59-80-22z m-230 533q97-96 235-96v91q-97 0-166 69l-87 87q-34 28-73 28-44 0-64-28l-129-128q-28-28-28-65 0-43 28-63l146-129v-230h92v285l-100 105 109 111z" horiz-adv-x="1102.1" />

<glyph glyph-name="locator_car" unicode="&#xea2c;" d="M937 732q-9 27-32 44t-51 16h-648q-28 0-51-16t-33-44l-122-352v-471q0-24 18-42t41-17h59q24 0 41 17t18 42v59h706v-59q0-24 18-42t41-17h59q24 0 41 17t18 42v471z m-731-588q-37 0-62 26t-26 63 26 62 62 26 63-26 25-62-25-63-63-26z m648 0q-37 0-63 26t-26 63 26 62 63 26 62-26 26-62-26-63-62-26z m-736 295l88 265h648l88-265h-824z" horiz-adv-x="1059.8" />

<glyph glyph-name="locator_flower" unicode="&#xea2d;" d="M402 792q-108 0-202-55-91-53-145-145-55-93-55-202 0-84 32-159t92-132l228-228q22-21 51-21t49 20l228 228q60 58 92 133t32 159q0 109-54 202-54 92-145 145-93 55-203 55z m-5-878l-229 230q-51 48-78 112t-27 134q0 92 46 171 45 77 122 123 79 46 171 46t171-46q77-46 123-123 46-79 46-171 0-71-27-134t-79-112l-228-230q-3-1-6-1t-5 1z m93 585q-7-3-14-7 2 8 2 16 0 31-23 53t-53 22-53-22-21-53q0-8 0-16-6 4-13 7-31 9-58-5t-38-44 5-57 44-38q7-2 15-3-6-5-11-12-18-25-13-56t30-49 56-13 50 30q4 7 7 14 4-7 8-14 19-26 50-30t55 13 30 49-13 56q-5 7-10 12 8 1 14 3 31 10 45 38t4 57-38 44-57 5z m-88-167q-24 0-41 17t-17 42 17 41 42 17 41-17 17-41-17-42-42-17z" horiz-adv-x="804" />

<glyph glyph-name="locator_store" unicode="&#xea2e;" d="M402 792q-108 0-202-55-91-53-145-145-55-93-55-202 0-84 32-159t92-133l229-228q21-20 50-20t49 20l228 228q60 58 92 133t32 159q0 109-54 202-54 92-145 145-93 55-203 55z m0-62q92 0 172-46 76-46 122-123 46-79 46-171 0-71-27-134t-78-113l-229-229q-2-2-5-2t-6 2l-230 230q-50 48-77 112t-27 134q-1 92 46 171 45 77 122 123 79 46 171 46z m-84-529h169q29 0 51 22t21 51l-18 245h-70v10q0 29-20 48t-48 20-48-20-20-48v-10h-71l-18-245q0-30 21-51t51-22z m85 362q14 0 24-10t10-24v-10h-68v10q0 15 10 24t24 10z" horiz-adv-x="804" />

<glyph glyph-name="locator_store2" unicode="&#xea2f;" d="M402 792q-108 0-202-54-91-54-145-145-55-93-55-203 0-83 32-158t92-133l229-228q21-21 49-21t50 21l228 228q60 57 92 133t32 158q0 110-54 203-54 91-145 145-93 54-203 54z m340-402q0-70-27-134t-78-113l-229-229q-2-2-5-2t-6 2l-230 230q-51 48-78 112t-27 134q0 93 47 172 45 77 121 122 80 46 172 46t172-46q77-45 122-122 46-79 46-172z m-497 166l-35-69-1-20q0-13 6-24t16-20v-174q0-18 13-31t31-14h255q18 0 32 14t13 31v176q9 7 15 19t5 23v17l-35 72h-315z m108-160q29 0 49 19 20-19 49-19 15 0 31 7t27 22q15-14 32-13v-163q0-4-3-8t-8-3h-255q-4 0-8 3t-3 8v163h1q16 0 31 13 10-14 26-22t31-7z" horiz-adv-x="804" />

<glyph glyph-name="locator_train" unicode="&#xea30;" d="M397 792q-126 0-201-13-94-16-142-57-54-46-54-129v-471q0-47 24-86t63-63 87-24l-75-74v-25h596v25l-75 74q47 0 87 24t63 63 23 86v471q0 83-54 129-47 41-142 57-74 13-200 13z m-223-743q-31 0-53 21t-22 53 22 52 52 22 53-22 22-52-22-53-52-21z m173 297h-248v247h248v-247z m273-297q-31 0-53 21t-21 53 21 52 53 22 53-22 22-52-22-53-53-21z m75 297h-249v247h249v-247z" horiz-adv-x="793" />

<glyph glyph-name="locator_walk" unicode="&#xea31;" d="M328 617q37 0 63 26t26 62-26 61-62 26-62-26-26-62 26-61 61-26z m-161-149l-123-618h92l78 351 92-88v-263h89v328l-92 89 25 130q45-49 106-79 65-30 136-30v88q-61 0-113 30-48 27-76 75l-43 70q-14 20-33 32t-42 12q-6 0-17-2t-18-2l-228-97v-206h87v149z" horiz-adv-x="569.5" />

<glyph glyph-name="ma-addresses" unicode="&#xea32;" d="M1067 604l-91 183q-3 5-9 5h-865q-7 0-10-5l-91-184q-1-1-1-4v-45q0-42 21-76t58-54l9-4v-481q0-37 27-63t63-26h716q37 0 63 26t26 63v481l10 6q35 19 55 54t21 74v46q0 2-2 4z m-105-665q0-27-20-47t-48-20h-716q-28 0-48 20t-20 47v472l24-3q9-1 13-1 40 0 77 28l12 10 12-12q28-34 68-53t81-19q35 0 68 12t59 35l11 9 11-9q25-23 58-35t67-12q42 0 82 19t69 53l11 12 12-10q36-28 76-28 7 0 22 1l18 3z m85 615q0-34-17-63t-46-46-63-17q-21 0-41 10t-42 32q-4 3-9 3t-7-5q-25-38-67-62t-84-23q-37 0-71 15t-57 43q-4 3-8 3t-9-3q-24-28-57-43t-71-15q-43 0-84 23t-66 62q-2 5-8 5t-9-3q-22-22-42-32t-41-10q-34 0-63 17t-46 46-17 63v43l87 174h851l87-174v-43z" horiz-adv-x="1068.1" />

<glyph glyph-name="ma-alert" unicode="&#xea33;" d="M471 792q-96 0-183-37-85-36-150-101t-101-150q-37-87-37-183t37-183q36-85 101-150t150-101q87-37 183-37t183 37q85 36 150 101t101 150q37 87 37 183t-37 183q-36 85-101 150t-150 101q-87 37-183 37z m0-922q-122 0-227 62-102 60-162 162-62 105-62 227t62 227q60 102 162 162 105 62 227 62t227-62q102-60 162-162 62-105 62-227t-62-227q-60-102-162-162-105-62-227-62z m2 355v0q9 0 16 7t6 15l2 330q0 8-6 15t-15 7h-1q-9 0-15-7t-6-15l-3-330q0-9 6-15t16-7z m-31-93q0-13 9-23t24-11 24 11 10 23-10 24-24 11-24-11-9-24z" horiz-adv-x="942" />

<glyph glyph-name="ma-autorep" unicode="&#xea34;" d="M788 336q0 68-35 102-20 19-45 24v83h-308v-85q-26-5-46-24-35-34-35-102 0-16 4-37 7-41 25-67 24-37 64-39v-35-1q15-25 76-36 36-8 81-8 59 0 98 19 20 9 29 20l1 2-1 41q41 2 65 39 16 26 24 67 3 21 3 37h0z m-95-135h-3v-47q-10-11-30-20-37-15-92-15-39 0-74 5-61 10-75 34v41h-4q-39 0-62 35-16 25-24 64-2 21-2 36 0 51 19 82 14 22 36 32 13 5 22 6h3v84h294v-83h3q8 0 20-5 23-10 38-32 19-32 19-83v0q-1-39-13-71-22-63-75-64v1z m423 38l-88 89q-5 4-10 2t-6-9q0-122-62-228-60-102-162-163-106-62-229-62-91 0-173 35t-148 100q-2 2-6 2t-7-3-2-6 2-7q67-67 153-103t181-36q125 0 232 61 104 59 168 161 65 104 71 227l73-73q3-2 7-2t6 2 3 7-3 6z m-224 415q-66 67-152 103t-181 35q-124 0-231-61-104-59-168-161-65-104-71-227l-73 73q-3 3-7 3t-6-3-3-7 3-6l88-88q3-3 6-3t4 1q6 2 6 8 0 122 62 228 60 102 162 163 106 62 228 62 91 0 174-35t147-98q2-3 6-3t6 3 3 7-3 6z" horiz-adv-x="1118.7" />

<glyph glyph-name="ma-beauty-profile" unicode="&#xea35;" d="M674 538v0l-239 239q-15 15-36 15t-36-15v0l-239-239q-59-56-91-130-33-75-33-159 0-108 54-201 54-90 144-144 93-54 201-54t202 54q90 54 142 144 55 93 55 201 0 84-33 159-33 74-91 130z m-275-665q-102 0-190 51-85 50-134 135-52 88-52 190 0 78 30 148t87 125l239 239q8 8 20 8t20-8l240-239q56-54 86-124t31-149q0-102-52-190-51-85-135-135-88-51-190-51z" horiz-adv-x="797.6" />

<glyph glyph-name="ma-click-collect" unicode="&#xea36;" d="M388 566q-44 0-81-22t-59-59-22-81 22-82 59-59 81-22 82 22 59 59 21 82-21 81-59 59-82 22z m0-308q-39 0-73 19t-53 54-20 73 20 73 53 53 73 19 73-19 54-53 20-73-20-73-54-54-73-19z m861 254h-488q-23 80-78 144t-130 99q-78 37-165 37-106 0-196-53-87-52-139-139-53-90-53-196 0-82 32-156 32-71 89-126l232-232q15-14 35-14t35 14v0l201 201v-167q0-31 21-52t53-22h501q30 0 52 22t21 52v333q0 8-6 14 21 13 34 35t13 47v32z m-604 0l-64-127v-32q0-25 14-48t34-35q-5-5-5-13v-144l-213-212q-9-10-23-10t-24 10l-232 233q-56 54-85 123t-30 147q0 101 50 188 50 83 134 133 86 51 187 51 82 0 157-35 71-33 123-92t76-137h-99z m590-255v-333q0-14-11-25t-25-10h-501q-14 0-25 10t-11 25v333l0 2q9-1 15-1 31 1 64 32l12-17q19-21 45-34t54-13 52 12 43 32q18-21 43-32t52-12q33 0 64 18t48 46q14-15 28-22 18-9 35-9 8-1 18 0v-2z" horiz-adv-x="1312.8" />

<glyph glyph-name="ma-fav" unicode="&#xea37;" d="M1054 483q0 84-42 156-40 70-110 111-72 42-157 42-62 0-119-24-56-24-99-66-42 42-98 66-57 24-120 24-84 0-156-42-70-41-111-111-42-72-42-156 0-63 24-120 24-55 66-97l-2-1h2l399-399q16-16 39-16t37 16l399 399q42 42 66 98 24 57 24 120z m-501-605q-11-11-26-11t-26 11l-399 400q-41 41-63 94t-21 111q0 79 39 147 39 66 105 105 68 40 147 40 58 0 111-22t95-64q5-5 12-5t12 5q42 41 95 64t112 22q78 0 146-40 67-39 105-105 40-68 40-147 0-58-22-111t-63-95z" horiz-adv-x="1054.3" />

<glyph glyph-name="ma-mail" unicode="&#xea38;" d="M1252 525q0 73-35 135-33 60-91 95-59 37-128 37h-725q-69 0-128-37-57-35-91-94-34-63-34-135l-20-409q0-72 34-135 34-59 91-95 59-37 127-37h767q68 0 126 36t92 96q34 63 34 135z m-979 247h255 470q49 0 92-20t75-55l-481-481q-16-16-40-16t-39 16l-485 486q-3 2-7 2 32 32 73 50t87 18z m746-902h-767q-62 0-116 34t-84 89-32 123l21 409q0 47 15 90t45 76v-1q2-6 8-6l483-483q21-22 52-22t53 22l482 481q24-33 39-73t14-84l19-408q0-66-31-123t-85-90-116-34z" horiz-adv-x="1271.4" />

<glyph glyph-name="ma-offers" unicode="&#xea39;" d="M501 551q19 8 37 20 30 21 57 60t37 76q11 41-5 64-16 21-48 21t-78-19q-41-18-75-42-19-13-34-30-16 17-34 30-35 24-75 42-46 19-78 19t-48-21q-16-23-5-64 10-37 37-76t57-60q17-12 37-20h-283v-529q0-46 24-86t62-63 86-23h438q46 0 86 23t63 63 23 86v529h-281z m-65 166q32 23 71 39 42 19 71 19 25 0 34-14 12-18 2-54-10-32-34-67t-52-54q-21-15-44-23t-42-7-35 7q5 5 8 9 12 17 13 38t-8 45q-6 16-17 32 15 17 33 30z m-180-131q-28 18-52 54t-34 67q-11 36 2 54 9 14 34 14 29 0 71-19 38-16 71-39 18-13 33-30-11-15-18-32-9-24-7-45t13-39q3-3 7-9-14-6-35-6t-42 7-43 23z m-238-52h365l1-221-366-1v222z m154-667q-41 0-77 21t-57 57-20 77v272l366 1 1-428h-213z m211 714q-12 19-9 43t18 48q16-24 18-48t-10-43q-3-3-8-9-6 6-9 9z m382-559q0-41-21-77t-57-57-77-21h-208l-1 428 364 1v-274z m0 292l-364-1-1 221h365v-220z" horiz-adv-x="781" />

<glyph glyph-name="ma-order-history" unicode="&#xea3a;" d="M328 225h-253q-5 0-8-3t-3-9v-175q0-5 3-9t8-3h253q5 0 9 3t3 9v175q0 5-3 9t-9 3z m-12-174h-229v150h229v-150z m12 385h-55l-28 80q-3 8-12 8h-19v98h98q5 0 9 4t4 8-4 9-9 4h-221q-6 0-10-5l-64-88q-4-4-3-9t4-8 8-2q6 0 10 4l62 84h92v-99h-20q-9 0-12-8l-28-80h-55q-31 0-53-24t-22-58v-421q0-34 22-59t53-24h253q32 0 53 24t22 59v421q0 34-22 58t-53 24z m-149 64h46l23-64h-92z m200-567q0-25-15-42t-36-16h-253q-21 0-35 17t-15 41v421q0 24 15 41t35 16h253q21 1 36-16t15-41v-421z m392 409q0 4-3 7t-6 2l-235-8-4 148q0 4-3 6t-6 2-6-3-3-6l6-156q0-4 2-6t6-2h1v0l243 7q3 0 6 3t2 6z m76 252l33 33 17-16q2-2 6-2t6 2 3 6-3 6l-45 46q-3 2-7 2t-6-3-2-6 3-6l16-17-34-33q-58 56-132 88-76 33-161 34l1 47h23v0q4 0 6 2t2 6-2 6-6 3h-64v0q-3 0-6-2t-3-6 3-7 6-2h23v-56q0-3 3-6t6-2v0q113 0 211-58 95-55 150-150 57-97 57-211t-57-212q-55-95-150-150-98-57-211-57v-18q118 0 220 60 98 58 156 157 60 102 60 220 0 86-32 165-33 78-91 137h1z" horiz-adv-x="968.7" />

<glyph glyph-name="ma-payment" unicode="&#xea3b;" d="M1527 523v2l-11-1v1h11v4q-1 71-37 132-35 59-94 94-61 36-133 37v0h-3l1-27h2q59-1 111-29t85-76 40-106h-1470q7 58 40 106t85 76 112 29h994v27h-994q-73 0-134-37-60-35-95-94-37-62-37-135v0l1-394-1-15q0-73 37-135 35-60 96-95 61-37 134-37h993q73 0 136 37 59 35 95 95 36 62 36 135v15 391z m-267-646h-4-989q-65 0-121 32t-87 88-32 120l1 14v182h1473v-196q0-65-33-120t-87-88-121-32z" horiz-adv-x="1527.1" />

<glyph glyph-name="ma-product" unicode="&#xea3c;" d="M387 294h-298q-6 0-10-4t-4-10v-208q0-6 4-10t10-4h298q7 0 11 4t4 10v208q0 5-4 10t-11 4z m-13-208h-270v179h270v-179z m13 457h-64l-33 95q-2 3-6 6t-8 3h-23v116h116q6 0 11 4t4 11-4 10-11 4h-261q-8 0-11-5l-78-104q-3-5-2-11t5-9 9-3q7 0 11 5l73 98h109v-116h-22q-5 0-9-3t-5-6l-34-95h-65q-24 0-44-13t-33-36-12-49v-498q0-26 12-48t33-36 44-13h298q38 0 64 29t26 68v498q0 27-12 49t-33 36-45 13z m-175 75h54l27-75h-108z m236-671q0-28-18-48t-42-20h-299q-25 0-42 20t-18 48v498q0 29 18 49t42 20h298q25 0 43-20t18-49v-498z" horiz-adv-x="476.5" />

<glyph glyph-name="ma-pwd-fill" unicode="&#xea3d;" d="M521 472q3 5 3 8v163q0 41-25 75t-68 54-93 20-93-20-67-54-25-75v-163q0-4 3-8-72-46-114-120-42-76-42-164 0-92 46-171 45-76 121-121 79-46 171-46t171 46q76 45 120 121 47 79 47 171 0 88-43 164-41 74-112 120z m-337 171q0 32 21 59t56 42 77 16 77-16 56-42 20-59v-154q-72 36-153 37t-154-37v154z m64-540l46 120v54q0 18 12 31t32 13 31-13 13-31v-54l45-120h-179z" horiz-adv-x="675.3" />

<glyph glyph-name="ma-pwd-light" unicode="&#xea3e;" d="M394 227v54q0 22-16 37t-37 15-37-15-16-37v-54l-45-119q-1-4 1-7t6-4h181q4 1 6 4t1 7z m-132-114l42 111v2 55q1 15 11 26t26 10 26-10 10-26v-55q0-2 1-3l42-110h-158z m256 368q2 2 2 5v164q0 38-25 71t-65 52-89 19-90-19-65-52-24-71v-164q0-3 1-5-75-46-118-121-45-78-45-170t47-172q45-76 121-121 80-47 173-47t171 47q78 45 123 121 47 80 47 172t-45 170q-44 75-119 121z m-340 169q0 34 22 63t59 46 81 17 82-17 60-46 21-63v-160q-75 42-162 42t-163-42v160z m162-783q-87 0-163 44-73 43-116 116-45 76-45 164t45 163q43 74 116 117 76 44 164 44t163-44q74-43 117-117 44-75 44-163t-44-164q-43-73-117-116-75-44-164-44z" horiz-adv-x="680.8" />

<glyph glyph-name="ma-pwd" unicode="&#xea3f;" d="M398 225v52q0 25-18 43t-42 18-43-18-17-43v-52l-44-116q-3-9 2-15t12-8h179q8 1 13 8t3 15z m-127-106l37 98q1 3 1 6v54q0 12 8 20t21 8 20-8 8-20v-54q0-3 1-6l37-98h-133z m250 353q3 5 3 8v163q0 41-26 75t-67 54-93 20-93-20-67-54-25-75v-163q0-3 3-8-72-46-114-120-42-76-42-164 0-92 46-171 45-76 121-121 79-46 171-46t171 46q76 45 120 121 46 79 46 171 0 88-42 164-41 74-112 120z m-337 171q0 32 21 59t56 42 77 16 77-16 56-42 20-59v-154q-72 36-153 37t-154-37v154z m154-761q-83 0-154 42-70 40-110 110-42 71-42 154t42 154q40 69 110 110 71 42 154 42t154-42q69-41 110-110 42-72 42-154t-42-154q-41-70-110-110-72-42-154-42z" horiz-adv-x="675.3" />

<glyph glyph-name="ma-referrals" unicode="&#xea40;" d="M1000 255q73 0 136 36 61 36 96 96 37 63 37 136t-37 136q-35 60-96 96-63 37-136 37t-135-37q-61-36-97-96-37-63-37-136t37-136q36-60 97-96 62-36 135-36z m0 521q68 0 126-35t92-92 34-126-34-126-92-92-126-34-126 34-92 92-34 126 34 126 92 92 126 35z m290-655h-583q-58 0-108-29t-78-78-29-107v-46q0-4 3-6t6-2 5 2 3 6v46q0 54 26 99t73 72 99 27h583q53 0 99-27t72-72 27-99v-46q0-4 2-6t6-2 6 2 2 6v47q0 58-29 107t-78 77-107 29z m390 80q46 0 85 23t61 61 22 84-22 84-61 61-85 23-84-23-61-61-23-84 23-84 61-61 84-23z m0 320q41 0 76-21t55-55 21-76-21-76-55-55-76-20-76 20-55 55-20 76 20 76 55 55 76 21z m184-400h-365q-3 0-6-3t-3-5 3-6 6-3h365q32 1 60-16t44-44 16-61v-125q0-3 3-6t5-2 6 2 3 6v126q-1 37-19 68t-50 50-69 19h1z m-1544 80q46 0 85 23t61 61 23 84-23 84-61 61-84 23-85-23-61-61-22-84 22-84 61-61 84-23z m0 320q42 0 77-21t55-55 20-76-20-76-55-55-76-20-76 20-55 55-21 76 21 76 55 55 75 21z m190-409q0 4-3 6t-6 3h-364q-37 0-68-19t-51-50-18-69v-125q0-3 2-6t6-2 6 2 3 6v126q0 33 16 60t43 44 61 16h364q4 0 6 3t3 5z" horiz-adv-x="2000" />

<glyph glyph-name="ma-reviews" unicode="&#xea41;" d="M1070-122q-45 15-79 45l-33 29 34 28q67 55 100 130t20 149q-11 72-59 129t-123 88l-39 14-6 1-3 13q-19 83-83 149-63 65-154 101-95 38-200 38-120 0-224-48-101-47-160-127-61-82-61-177 0-90 56-170t151-128l42-21-29-36q-38-46-95-75-7-3-5-10 1-3 3-5t5-2q18-1 33-1 63 0 118 16t100 50l35 25 20-37q41-73 121-115t176-42q37 0 75 6l23 5 13-9q62-41 144-41 42 0 83 11 7 2 7 9t-6 8z m-658 229q-5 0-7-3-44-55-147-83-53-14-115-18h-1q24 6 56 37 23 22 47 53l20 28 2 4q2 4 0 7t-5 6q-73 28-128 74t-85 105-31 123q0 90 59 168 56 76 153 120 99 46 215 46t215-46q96-44 153-120 58-78 58-169t-58-169q-57-75-153-119-100-45-215-45-12 0-33 1z m497-227q-41 12-72 38-3 2-6 2h-2q-16-5-27-7-36-6-71-6-81 0-152 32t-112 90l-39 54 66 6q107 9 195 55 87 46 140 116 53 74 60 159l3 55 50-24q63-30 103-81t49-112q13-81-29-160t-123-129q-2-3-3-9-1-4 3-10l5-7q11-13 35-29 14-10 42-25 26-15 29-19-20-8-47-8-22 0-47 5-18 3-36 9z m-650 605q-22 0-37-15t-15-37 15-37 37-15 37 15 15 37-15 37-37 15z m239-52q0 21-15 37t-37 15-36-15-15-37 15-36 36-16 37 15 15 37z m136-52q21 0 36 15t15 37-15 37-36 15-36-15-16-37 16-37 36-15z" horiz-adv-x="1115" />

<glyph glyph-name="ma-shipping" unicode="&#xea42;" d="M1230 245l-68 219q-14 50-56 83t-94 33h-96v55q0 91-74 129-56 28-165 28h-427q-62 0-116-31t-84-85-32-116l-18-353q0-61 29-113t81-84 111-36q2-34 20-62t48-45 65-17 65 17 48 45 21 62l299 1q2-35 21-63t48-45 64-17 65 17 49 45 20 64q53 4 96 31t67 73 25 98q0 35-12 67z m-177-246q-3 33-22 60t-48 44-63 16q-3 0-7-3t-4-9 5-9v0q3-2 6-2 30 0 56-15t40-40 15-55v-2q0-30-14-56t-41-40-56-15-55 15-41 40-14 56v3q-1 4-3 6-4 5-9 5l-310-1q-2 23-12 44-17 35-50 56t-72 21q-4 1-8-3t-3-8 3-8 8-3q33 0 61-18t40-48q11-20 11-44v-2q0-30-15-56t-41-40-55-15-56 15-41 40-15 56v2q0 3-1 6h-1q-3 5-9 5-57 0-105 29t-76 76-28 105l18 352q0 57 28 106t76 76 105 28h427q113 0 165-32t51-102v-92l1-4v-263q0-2 1-4 3-7 10-7h131q5 0 8 3t3 8-3 9-9 3h-118v269h95q45 0 81-28t47-72l69-220q10-29 10-60 0-46-22-86t-59-64-85-28z" horiz-adv-x="1242" />

<glyph glyph-name="ma-signs" unicode="&#xea43;" d="M407-150v323l-300 1q-7 0-10 4l-93 103q-4 3-4 8t4 10l94 102q3 4 9 4l300-1v94l-238 1q-5 0-9 3t-4 10l1 205q0 5 4 9t9 4h237v62h25v-62l364-2q5 0 9-4l94-103q4-4 4-9t-4-9l-94-102q-4-4-10-4l-363 1v-94l300-1q6 0 10-4t4-9l-1-205q0-6-3-9t-10-4l-300 1v-323h-25z m-376 440l81-89 607-2 0 178-606 2z" horiz-adv-x="901.6" />

<glyph glyph-name="ma-user" unicode="&#xea44;" d="M509 253q73 0 136 37 62 36 97 96 36 63 36 136t-36 137q-35 60-97 96-63 37-136 37t-135-37q-62-36-98-96-37-64-37-137t37-136q36-60 97-96 63-37 136-37z m0 523q69 0 127-35t92-92 34-126-34-127-91-91q-59-35-128-35t-127 34-92 92-34 127 34 126 92 92 127 35z m291-656h-585q-58 0-107-29t-79-79-29-108v-46q0-3 2-6t6-2 6 2 3 6v47q0 54 27 99t72 72 99 27h585q54 0 99-27t73-72 27-100v-46q0-3 2-6t6-2 6 2 3 6v47q-1 58-30 107t-78 79-108 29z" horiz-adv-x="1014.7" />

<glyph glyph-name="mail" unicode="&#xea45;" d="M1252 525q0 73-35 135-33 60-91 95-59 37-128 37h-725q-69 0-128-37-57-35-91-94-34-63-34-135l-20-409q0-72 34-135 34-59 91-95 59-37 127-37h767q69 0 127 36t91 96q34 63 34 135z m-723 247v0h470q48 0 91-20t76-55l-482-481q-16-16-40-16t-39 16l-485 486q-2 2-7 3 32 31 73 49t87 18h256z m490-902h-767q-62 0-116 34t-84 89-32 123l21 409q0 47 15 90t44 76l1-1q2-6 8-6l483-483q21-22 52-22t54 22l481 481q24-33 39-73t14-84l19-408q0-67-31-124t-85-89-116-34z" horiz-adv-x="1271.4" />

<glyph glyph-name="male" unicode="&#xea46;" d="M939 766q0 4-2 8-4 12-15 16-3 1-8 2h-214q-12 0-21-9t-8-21 8-21 21-8h139l-170-170q-55 48-123 73t-140 25q-82 0-156-30t-131-89-88-131-31-156 31-155 88-131 131-88 155-31 156 31 131 88q75 75 104 175 28 97 6 196-22 102-91 182l169 169v-139q0-12 9-21t21-8 22 8 8 21v211z m-533-856q-70 0-133 26t-112 75-76 112-26 132 26 133 76 112 112 75 132 27 133-27 112-75q67-66 91-157 23-87 0-176-24-90-91-156-48-50-112-75t-132-26z" horiz-adv-x="939.3" />

<glyph glyph-name="map-dual-arrow" unicode="&#xea47;" d="M286 306v306l113-118q13-14 33-13t34 14 15 34-14 34l-227 229-227-225q-14-14-13-33t15-34 34-15 33 13l113 113v-305q0-15 14-24t32-10 31 10 13 24h1z m410-163q-14 13-34 14t-33-13l-113-113v305q0 15-14 25t-31 9-32-9-14-25v-306l-113 118q-13 14-33 13t-34-14-14-34 12-34l228-229 227 225q14 14 13 34t-15 34z" horiz-adv-x="710.2" />

<glyph glyph-name="offers" unicode="&#xea48;" d="M559 551q-25-21-55-33 31 12 55 33l3 2q24 22 44 50t33 57q14 34 14 61t-14 45q-13 17-35 22-30 9-70-2-28-8-59-23t-56-34q-11-8-22-16-9 8-20 16-27 20-57 35t-58 22q-41 11-70 2-22-5-36-22t-13-44 13-62q12-30 33-57t45-49l2-3h-236v-529q0-35 13-66t38-55 55-38 66-13h438q35 0 66 13t55 38 38 55 13 66v529h-223z m-112 137q24 18 50 30t49 20q9 2 17 3t16 1 13-1 8-6 3-17q0-16-10-40t-27-46-37-41-42-26q-21-9-42-9 6 9 8 20 4 18 2 39-5 32-24 60 7 7 15 13h1z m-12-182h-6 6z m8-1v0 0 0z m-53 103q2 12 7 25 6-12 8-25 2-9 1-17-2-11-9-19-5 8-7 19-1 8 0 17z m-161 24q-16 23-26 46t-11 40q-1 12 4 18 2 3 7 5t14 1 15-1 17-3q23-7 50-20t50-29q8-6 15-14-19-28-24-60-2-21 2-39 3-11 8-20-18 0-37 7-25 9-46 27t-38 42z m124-127q-30 0-61 13 31-13 61-13z m7 1q-4-1-7-1z m-84-606h-92q-28 0-52 10t-43 30-29 43-10 53v241l317 1 1-378h-92z m-67 428h-159v174h318v-174z m524-292q0-28-10-53t-29-43-44-30-51-10h-180l-1 377 315 1v-242z m0 292l-157 0h-158v174h314z" horiz-adv-x="782" />

<glyph glyph-name="online" unicode="&#xea49;" d="M584 169q-18 0-31-13t-12-30 12-31 31-12 31 12 12 31-12 30-31 13z m0-64q-8 0-14 6t-7 15 7 14 14 6 15-6 6-14-6-15-15-6z m520 687h-1040q-26 0-45-19t-19-44v-641q0-26 19-45t45-18h424v-138h-113q-7 0-12-5t-6-13 6-14 12-5h418q7 0 13 5t5 14-5 13-13 5h-112v138h423q27 0 46 18t18 45v641q0 25-18 44t-46 19z m-1040-37h1040q11 0 19-8t9-19v-500h-1095v501q0 11 8 18t19 8h0z m579-868h-118v138h118v-138z m461 175h-1040q-12 0-19 7t-8 19v103h1094v-103q0-11-8-19t-19-7z" horiz-adv-x="1167.4" />

<glyph glyph-name="parcel-checked" unicode="&#xea4a;" d="M731 436v0l-3 8-355 176q-7 3-13 0l-352-171q-5-2-7-7l-1-2v-4-402q0-9 8-14l351-169 6-1v0 0 0h2l356 169q8 5 8 14v402 1z m-365 154l316-156-139-67-320 153z m-177-87l319-152-142-69-316 154z m-159-91l106-51 3-2 212-103v-366l-321 153v369z m351-522v366l147 71v-104q0-7 4-11t11-4 10 4 5 11v118l143 69v-367z m516 899q-6 4-11 3t-10-5l-159-209-99 98q-4 5-11 5t-10-5-4-10 3-11l112-111q4-5 11-5h0q7 1 12 7l169 222q3 5 3 11t-6 10z" horiz-adv-x="902.5" />

<glyph glyph-name="parcel-sent" unicode="&#xea4b;" d="M1211 565v0l-5 11-433 214q-8 4-17 0l-429-208q-6-3-9-9v-3q-1-1-1-4v-491q0-12 11-17l428-206 8-2v0 0 0 0h1l436 208q4 2 7 6t3 11v490z m-446 188l385-189-169-82-391 187z m-19-600l-1-255-391 188v450l129-62 4-3 259-125v-193z m19 224l-387 189 169 82 390-187z m409-291l-392-188 1 448 179 86v-127q0-7 5-12t13-6 14 6 5 12v145l175 85v-449z m-923 119h-233q-7 0-12-5t-6-13 6-13 12-6h233q8 0 14 6t5 13-5 13-14 5z m0 134h-233q-7 0-12-5t-6-13 6-13 12-5h233q8 0 14 5t5 13-5 13-14 5z m0 135h-233q-7 0-12-6t-6-13 6-12 12-6h233q8 0 14 6t5 12-5 13-14 6z" horiz-adv-x="1210.7" />

<glyph glyph-name="parcel-wrapped" unicode="&#xea4c;" d="M219 425q-10 0-14 9-3 6-1 12t8 9l150 72q5 3 12 1t9-8 0-12-8-8l-150-73q-2-2-6-2z m354-172q-10 0-15 9-2 6 0 12t8 9l325 157-149 72q-5 3-7 10t0 12 9 7 12 0l177-87q9-5 9-15t-9-13l-353-171q-3-2-7-1v-1z m-1-403q-3 0-8 3-7 4-7 13l1 403q0 10 8 14l354 171q7 3 15-1t7-13v-404q0-10-9-15l-353-169q-4-2-8-2z m17 409l-1-369 323 155v370z m-17-409q-2 0-6 2l-354 170q-10 5-10 15v198q0 6 5 11t11 4v0q7 0 11-4t5-11v-189l324-156v379q0 7 4 11t11 4v0q7 0 11-4t5-10v-404q-1-9-8-13-4-3-9-3z m354 579q-6 0-11 4t-4 11v216l-322 150-1-89q0-6-5-11t-11-4v0q-6 0-11 4t-4 11l1 114q0 9 7 13t15 1l353-165q9-4 9-14v-226q0-6-5-11t-11-4z m-572-281q-4 0-7 2l-339 177q-8 4-8 14t9 14l203 100q6 3 12 1t9-8 1-12-9-9l-174-87 303-159 213 92q5 3 11 0t9-8 0-12-8-8l-219-96q-3-1-6-1z m219 105q-3 0-7 2l-354 172q-6 3-8 9t1 12 9 8 11-1l355-172q6-2 8-9t-1-12q-4-9-14-8v-1z m-6 153q-7 0-11 4t-5 11q0 93-47 173-46 78-124 124-80 46-173 46-45 0-88-11-7-1-12 2t-8 9 2 12 9 8q47 12 97 12v1q75 0 144-29t121-82 82-121 28-144q0-6-4-11t-11-4z m0 0q-7 0-11 4t-5 11 5 11l68 69q4 5 11 5t11-5 4-11-4-11l-68-69q-5-4-11-4z m-5-4q-6 0-11 5l-69 69q-4 4-4 11t4 11 11 4 11-4l69-69q5-5 5-11t-5-11-11-5z" horiz-adv-x="942" />

<glyph glyph-name="payment" unicode="&#xea4d;" d="M1527 523v0 5q0 72-37 133-35 59-94 94-61 36-133 37h-998q-72 0-133-37-60-35-95-94-37-62-37-135l1-394-1-15q0-73 37-135 35-60 96-95 61-37 134-37h994q72 0 135 37 59 35 95 95 37 62 37 135l-1 15v391z m-266 177v0h-2 2z m-1169-174q0 47 24 87t64 64 88 23h994q47-1 87-24t63-63 23-87v-6h-1343v6z m1169-584h-2-992q-47 0-88 23t-63 64-24 88l1 171h1342v-171q0-47-23-88t-64-64-87-23z" horiz-adv-x="1527.1" />

<glyph glyph-name="paypal" unicode="&#xea4e;" d="M527 389h-101q-14 0-22 11t-5 23l46 199q3 9 10 15t17 6h106q36 0 62-19t37-50 0-65q-10-43-45-76-11-11-26-19v-1q-37-24-79-24z m65 48h1-1z m-132 7h67q25 0 50 16 10 6 17 13 23 22 31 50 4 17 0 32t-16 24-31 9h-84z m-131-462h-217q-13 0-21 11t-5 23l176 754q2 9 10 15t17 6h369q55 0 105-22t81-62q26-33 37-75 14-55-1-122-17-79-63-138t-116-91-151-33h-133l-62-245q-2-10-9-15t-17-6z m-182 55h160l62 245q2 10 9 15t17 6h154q69 0 127 27t97 77 54 115q10 46 3 84t-30 67-61 46-81 17h-347z m316-188h-216q-14 0-22 10t-5 23l15 67q2 11 12 17t21 4 17-12 3-21l-7-34h161l61 246q3 9 10 15t17 5l159 1q68 1 125 28t95 77 52 113q17 78-13 132-6 10-3 21t13 17 21 2 16-14q21-34 25-78t-5-92q-18-77-63-136t-113-91-148-34h-140l-62-246q-2-9-10-15t-16-6v1z" horiz-adv-x="1105.8" />

<glyph glyph-name="pencil" unicode="&#xea4f;" d="M1018 660q0 0 0 1l-7 8-9 10-94 85q-19 18-47 24t-56 1-49-25l-665-608-3-2-87-279q-4-11 5-20 7-5 16-5 3 0 6 1l303 79 8 5 663 605q31 29 31 70 0 26-15 50z m-965-761l66 209 163-149z m919 669l-649-592-185 169 649 592q17 16 45 16t46-16l93-86q19-17 19-42t-18-41z" horiz-adv-x="1032.2" />

<glyph glyph-name="phone" unicode="&#xea50;" d="M397 739v0q27 0 51-14t37-38 14-51v-630q0-28-14-52t-37-37-52-14l-240-1q-28 1-52 15t-37 37-14 52v630q0 28 14 52t37 37 52 14h241z m-1 53v0h-230-10q-42 0-78-21t-57-57-21-78v-630q0-42 21-78t57-57 78-21h241q42 1 77 22t56 56 22 77v632q0 42-21 77t-57 57-77 21h-1z m-120-744q-20 0-34-14t-14-34 14-33 34-14 33 14 14 33-14 34-33 14v0z" horiz-adv-x="551.1" />

<glyph glyph-name="pinterest" unicode="&#xea51;" d="M234 751q-92-37-151-105t-76-160q-16-89 4-170 18-79 65-127 16 5 32 14 18 10 38 28 13 10 36 32 20 19 31 29-41 48-46 105-2 52 25 103 28 47 77 84t107 50q74 17 155 4 83-16 142-59 67-48 88-120 15-52 3-99-13-44-48-76t-84-42q-51-12-108 2l-6 1q-15 3-19 6-8 6-8 18v243q0 11-1 12t-7 3h-6q-95 12-150 2h-5q-7-2-9-4t-1-12q0-78 3-345v-61q-1-37-6-57-7-36-27-44-14-7-33-2-11 2-32 13t-33 13q2-13-1-46-4-47-1-67 6-35 31-46 39-16 78-20 42-4 79 8 50 18 84 61 29 39 41 93 10 50 4 101 81-24 165-7 82 15 149 66t101 124q25 54 28 113t-17 116-57 101q-69 82-183 126-106 40-229 39-120-1-222-41z" horiz-adv-x="942" />

<glyph glyph-name="present" unicode="&#xea52;" d="M522 542q8 4 16 11 23 16 45 43 21 26 35 54 17 32 21 58 5 35-11 58-18 26-58 26-34 0-81-20-41-18-75-42-15-10-28-23-12 12-26 23-35 24-75 42-48 20-82 20v0q-39 0-58-26-15-23-10-58 5-26 21-58 13-28 34-54 23-27 46-43l16-11h-252v-522q0-46 23-85t62-62 85-23h432q46 0 85 23t62 62 23 85v522h-250z m220-228l-340-1-1 199h341v-198z m-364 258q-12 18-10 42t19 47q16-23 18-47t-9-42q-4-4-9-9-5 5-9 9z m53 135q32 22 70 38 42 18 69 18 24 0 34-14 12-17 2-52-9-33-33-67t-51-53q-21-15-43-22t-43-8q-12 0-22 2l6 7q13 20 15 46 1 24-9 47-7 19-20 36 12 11 25 22z m-262 42q10 14 34 14 28 0 70-18 38-16 70-38 13-11 25-22-14-18-20-36-10-24-8-47 0-26 14-46l6-7q-10-3-22-3-21 0-43 8t-43 23q-27 18-50 53t-35 67q-10 35 2 52z m204-236v-200l-344-1v201h344z m-302-592q-20 19-31 45t-11 54v263l344 1 1-405h-204q-28 0-54 11t-45 31z m630 0q-19-20-45-31t-54-11h-199l-1 405 340 1v-265q0-28-10-54t-31-45z" horiz-adv-x="771.8" />

<glyph glyph-name="products-pre-ordering" unicode="&#xea53;" d="M1083 566v1l-5 9-434 214q-7 4-15 0l-422-202q-3-1-5-3h-185q-7 0-12-5t-5-12 5-11 12-5h35v-95q0-15 7-30t18-24l103-89-103-89q-12-11-18-25t-7-30v-94h-35q-7 0-12-5t-5-12 5-11 12-5h216l396-191 7-2v0 0 0 0h2l436 209q9 4 9 14v493z m-446 192l393-193-176-85-399 191z m-220-105l400-191-180-87-279 136v41h36q7 0 12 5t4 11-4 12-12 5h-119z m-318-453l106 92 107-92q13-11 13-29v-95h-239v95q0 18 13 29z m-13 257v95h239v-95q0-16-12-27l-108-94-106 92q-13 12-13 29z m308-414q7 0 12 5t4 11-4 12-12 5h-36v94q0 16-7 30t-18 25l-102 89 102 89q12 10 18 24t7 30v18l1-1v0l261-127v-456l-314 152h88z m258-152v456l186 90v-132q0-7 5-12t11-4 11 4 5 12v147l181 87v-456z" horiz-adv-x="1082.8" />

<glyph glyph-name="productsweepstake" unicode="&#xea54;" d="M1058 303q-11 34-64 43-27 6-59 7-64 2-109-17l-185-106q-17 17-39 28l-3 1-212 20q-6 0-20 13-11 9-32 34l-2 2q-25 28-35 35-19 13-86 20-31 2-61 2l-139 11-2-34 140-9q41-1 79-5 41-5 50-11 7-6 30-32v0q26-29 39-40 21-19 38-19l205-20q14-7 25-17 17-15 17-27 0-24-52-50h-352v-33h360l4 1q73 37 73 82 0 11-4 21l178 102q40 17 97 15 30-2 50-5l1-1q34-6 40-22 4-13-8-36-8-17-20-31l-97-67-356-224q-100-64-224-48-36 4-70 15-20 7-35 13l-196 172-22-24 200-175 2-1q14-7 34-14 39-13 81-18 27-4 53-4 32 0 63 5 71 12 132 51l356 225 101 70 1 1q15 16 25 36 20 37 10 65z m-681 42q5-5 12-5t11 5 5 12-6 12q-13 13-22 29-9 18-5 32 6 22 50 33 65 16 105 48 23 17 38 40l2 2q3 5 2 12t-7 10-12 3-11-7l-1-2q-35-52-124-74-10-3-20-6-3 16 2 31 11 32 66 61 49 25 45 67-3 30-33 61-11 11-23 20 12 13 30 22 26 11 56 7 48-5 80-38 14-13 22-30t9-34q1-14-7-23t-24-13q-11-4-18-4t-11-5-5-11 5-12 12-5q9 0 23 4 26 7 41 23 8 8 11 17 12-12 21-29t14-30 0-23q-4-14-38-35-21-14-63-33v-1q-16-8-19-10-6-3-8-10t2-12q5-8 14-8 5 0 8 2l18 8q37 19 58 31 29 17 45 34 38-63-11-124-5-5-4-12t6-11 11-3q7 0 12 5 41 52 34 107-5 37-31 71 5 31-19 71-20 34-45 52-6 42-40 76-39 41-99 48-33 4-64-7-26-9-45-27-16-16-19-27-2-9 2-15t9-8q13-6 29-23 21-23 21-41t-28-33q-66-35-82-80-9-26 0-57-19-15-24-35-6-24 7-52 10-23 30-41z" horiz-adv-x="1060.7" />

<glyph glyph-name="profil" unicode="&#xea55;" d="M519 265q72 0 132 36 60 35 95 95 36 61 36 133t-36 132q-35 60-95 95-60 36-132 36t-133-36q-60-35-95-95-36-61-36-132t36-133q35-60 95-95 61-36 133-36z m0 469q55 0 102-27t76-75 28-103-28-104-76-74-103-28-103 28-75 74-27 104 27 103 75 75 104 27z m284-579h-572q-63 0-115-31t-85-84-31-116v-46q0-11 8-20t21-8 20 8 9 20v46q0 47 23 87t63 63 87 24h572q47 0 87-24t64-63 23-87v-46q0-11 8-20t21-8v0q12 0 20 8t8 20v46q0 63-31 116t-84 84-116 31z" horiz-adv-x="1034" />

<glyph glyph-name="recycle-with-terracycle" unicode="&#xea56;" d="M1345 792h-1q-62 0-123-16t-114-49l-42 52-128-236 245 85-35 48q91 52 197 52h1q110 0 204-56 92-53 146-145 56-94 56-203 0-83-32-158t-90-133q-57-56-130-86t-154-30-154 30-132 88-88 131-32 155q0 76-23 146t-66 129-103 103-131 67-146 23h-2q-91 0-174-34t-150-97q-69-66-105-152-39-90-39-188 0-94 36-179t103-152 152-102 179-35h1q63 0 122 17t114 47l42-52 130 236-246-85 35-47q-92-52-197-52h-1q-81 0-155 31t-131 88-89 131-31 154q0 84 33 160t92 134q57 55 129 84t150 29h2q110 0 204-55 91-54 146-145 55-94 55-204 1-75 24-146t67-129 103-103 130-68 146-23l2 1q92 0 177 35t150 99q68 67 105 154t36 183q-1 127-64 236-63 106-170 168-109 64-236 64z" horiz-adv-x="1814.2" />

<glyph glyph-name="refer-a-friend" unicode="&#xea57;" d="M379 371q57 0 105 28t77 77 28 105-28 106-77 77-105 28-106-28-77-77-28-106 28-105 77-77 105-28h1z m0 392q49 0 90-25t66-66 25-90-25-91-66-66-90-25-91 25-66 66-24 91 24 90 66 66 90 25h1z m374-649h2v19q0 33-13 63t-35 53-54 36-63 12h-425q-33 0-63-12t-54-36-36-53-12-64v-33h29v33q0 37 19 69t49 49 68 18h425q36 0 66-17t48-45 21-64q-45 38-105 38-45 0-83-22t-60-60-22-83 22-83 60-60 83-22 83 22 60 60 22 83q0 55-32 99z m-133-235q-37 0-68 19t-50 49-18 68 18 68 50 49 68 19 68-19 50-49 18-68-18-68-50-49-68-19z m64 136h-51v50q0 5-3 8t-8 3-7-3-3-8v-50h-52q-3 0-7-3t-3-8 3-7 7-4h52v-51q0-4 3-7t7-3 8 3 3 7v51h51q4 0 7 4t4 7-4 8-7 3z" horiz-adv-x="784.7" />

<glyph glyph-name="refil" unicode="&#xea58;" d="M573 553q-7 7-18 7t-18-7l-122-122q-29-28-47-66t-17-81q1-55 29-102t73-74 102-27 102 27 74 74 27 102q0 43-16 81t-46 66z m80-166q21-20 33-47t11-56q0-38-19-71t-52-52-71-19-72 19-51 52-19 71q0 30 11 56t33 47l98 99z m449-128l-84 84q-7 7-16 8t-18-1-13-12-6-17q0-111-56-207-54-93-147-147-95-56-206-56-83 0-158 31t-134 90q-8 9-21 9t-22-8-8-22 8-21q67-68 153-104t182-36q116 0 218 54 99 52 164 143 67 93 83 206l38-38q9-9 22-9t21 9 8 22-8 22z m-546 472q82 0 157-31t132-89q10-8 22-8t21 8 9 21-8 22q-67 67-153 103t-180 35q-117 0-219-53-99-53-165-144-66-93-83-205l-37 37q-9 9-22 9t-21-9-9-21 9-22l84-84q9-9 22-9 6 0 11 2 9 3 14 11t5 17q0 111 57 207 54 93 147 147 95 56 207 56z" horiz-adv-x="1110.4" />

<glyph glyph-name="reward-icon-arrow" unicode="&#xea59;" d="M673-127l-292 907q-2 5-6 8t-10 4-10-3-7-8l-347-899q-2-5 0-11t5-9 11-4 11 3l327 412 291-419q4-4 10-4t11 3l2 2q8 8 4 18z" horiz-adv-x="674.3" />

<glyph glyph-name="reward-icon-review" unicode="&#xea5a;" d="M243 596q54 14 163 38l10 3q8 1 10 9t-4 13-13 4l-9-2q-110-24-164-38-9-3-10-10t4-13 13-4z m311-38q-7-2-18-4-259-59-388-91-7-3-9-10t4-13 13-4q124 31 373 87l31 8q9 2 10 9t-4 13-13 5h1z m-77-286q-120-25-260-61-8-2-9-10t3-13 14-4q143 37 258 62 8 1 10 9t-4 13-12 4z m368 373q2 2 0 4l-71 51h-1q-1 2-2 2t-3-1l-124-170-62 261-582-137 190-805 582 138-99 420 17 23q85 116 155 214z m-74 50q16-12 48-35l19-14-67 48v1z m-26-691l-538-127-180 761 539 127 61-257-34-47q-1 5-6 10t-12 2l-17-4q-259-58-388-91-8-2-9-9t3-13 14-5q125 33 378 90l25 5-53-72q-206-46-333-79-7-2-9-10t4-13 12-3q124 31 315 74l-5-31q-5-30-9-45l-1-2q-1-3 2-5t6-1q1 0 2 0l3 2h1l3 2 71 39q3 0 3 3l4 1q5 4 12 14l47 64z m-161 302l-9-4-42-23q-8 8-18 13l5 28q2 13 4 25l6 1q28-18 54-40z" horiz-adv-x="845.4" />

<glyph glyph-name="reward-logo" unicode="&#xea5b;" d="M3185 74v0t-1 0q-2-2-6-5l-12-5q-13-5-39-12t-62-14l16 45q17 45 22 68 9 39-1 67-3 8-10 9t-14-4-3-12q9-26-1-67-7-24-25-71-10-24-14-34l-2-8-4-1q-17-3-50-9-36-5-53-9-29-6-51-14-7-2-9-9t1-13 12-6 34 4q36 5 52 3 29-2 37-18 3-6 4-14-11-41-20-78-3-9 5-14t15-1q21 9 27 37 6 24 1 52 9 32 20 66l35 7q51 8 77 17 47 16 45 39 0 8-6 12t-13 1-7-9z m-167-89q-7 8-17 13l22 4z m-2743 428q-13-29-22-41t-27-15q-12-3-45-3-31 0-44 4-9 2-15 8t-8 21q-2 12-1 35v192q0 28 2 40t9 16q5 3 20 5l12 2q2 3 2 9t-4 7q-37-1-72-1t-77 1q-3-1-4-7t3-9l15-2q15-2 20-5 6-4 8-16t3-40v-203q0-29-3-41t-8-16q-5-3-20-4l-16-3q-4-2-3-8t4-8q35 2 78 2h57q96 0 130-2 5 11 13 37t10 41q-2 4-8 5t-9-1z m73 300q-17 0-25-9-6-7-6-16t5-14 12-6q11-1 19-7 10-9 10-21 0-31-44-49-2-4 0-8t4-7q30 8 51 28 23 24 23 54 0 22-14 38t-35 17z m586-154q0 62-27 113-27 55-78 86-56 34-132 34-68 0-123-32t-87-86-32-122q0-62 30-115t83-83q57-32 129-32 66 0 120 30t85 84q32 55 32 123z m-410 15q0 70 26 117 23 41 63 62 34 18 73 18 62 0 104-36 38-31 58-86 18-51 18-111 0-64-23-110-21-43-59-65-35-20-77-20-63 0-107 37-39 33-59 89-17 50-17 105z m794-147q-36-81-114-81-37 0-68 18-34 21-53 58-21 41-21 96 0 53 20 91 19 34 51 52 31 17 68 17 83 0 105-79 3-3 9-2t8 3q-4 32-6 74l-1 11-15 3q-20 6-46 9t-49 3q-41 0-81-12t-69-34q-31-25-50-60-18-38-18-84 0-51 22-90 19-36 55-59 56-37 139-37 23 0 52 5 20 4 33 8l5 2q10 2 14 3 7 9 15 32 8 25 11 50-2 5-7 6t-9-3z m125-66q55-37 138-37 23 0 52 5 20 4 33 8l7 2q8 2 12 3 8 9 15 32 9 25 11 50-2 5-7 6t-8-3q-35-81-115-81-35 0-68 18-33 21-52 58-22 41-22 96 0 53 21 91 18 34 52 52 30 17 66 17 48 1 76-27 20-19 30-52 2-3 8-2t9 3q-5 31-7 73l-1 12-15 3q-20 6-46 9t-48 3q-42 0-81-12t-70-34q-31-25-48-60-20-38-20-84 0-51 22-90 21-36 56-59z m446-30q3 1 3 7t-2 9l-12 2q-14 2-20 4-6 5-8 17t-3 41v203q0 28 3 41t8 16q6 3 20 4l12 2q3 3 3 9t-4 7q-37-1-73-1t-73 1q-3-1-4-7t3-9l12-1q14-2 20-5 6-4 8-16t3-41v-203q0-29-3-41t-8-17q-6-2-20-4l-12-2q-3-3-3-9t4-7q36 2 73 2t73-2z m164 339q11 0 13-3t2-21v-235q0-29-2-41t-10-17q-4-2-18-3l-23-3q-3-2-3-8t4-8q52 2 84 2t79-2q4 1 5 7t-3 9l-20 2q-14 2-19 4-7 5-9 17t-2 41v235q0 17 2 21t12 3h32q29 0 44-4t21-16 10-33q4-2 9-2t8 3q-1 14 2 42t6 45q-2 2-6 2-3 0-7-1-5-10-13-12t-28-2h-223q-28 0-37 2t-10 12q-2 1-6 1t-6-1q-7-40-21-82 2-5 8-6t9 2q11 22 21 32t25 15q13 3 40 3h30z m575-323l-8 2q-15 2-21 6t-11 12q-4 7-10 27l-78 227q-5 13-13 38t-12 36q-4 5-9 5l-3-3q-20-20-36-23 2-6-2-17-2-8-8-22l-79-206q-17-43-22-55t-12-18-18-6l-16-3q-3-4-3-9t4-7q28 1 53 1h19q26-1 39-2 3 2 3 8t-2 9l-16 3q-11 1-15 3t-3 9 6 23l23 68q4 10 6 11t13 2h71q12 0 15-2t8-13l25-74q6-17 3-22t-17-6l-12-2q-2-3-2-8t4-8h16q33 1 50 1 37 0 71-1 3 2 3 8t-4 8z m-166 143h-57q-10 0-12 3t4 13l32 90q5 15 6 17h2q2-4 14-41l24-68q3-9 0-11t-13-3z m257 120q6-6 34-38l154-175q52-59 65-75 11-1 18 7-2 13-2 96v130q0 44 1 63 2 33 6 44 3 6 10 9 4 2 14 3l12 3q4 3 4 8t-5 8q-30-1-57-1-29 0-62 2-4-2-4-8t3-9l13-1q10-2 16-5t10-9q7-11 10-44 1-22 1-63v-106q0-11-1-13-5 2-54 56l-25 30-55 59q-22 23-48 55-34 42-39 57-20-1-38-1h-7q-40-1-57 1-4-1-5-7t3-9l7-1q22-5 30-11 13-11 15-23 2-9 2-40v-133q0-44-1-63-1-32-5-44-3-6-10-9-5-2-14-3l-12-3q-4-3-3-8t4-8q28 1 56 1 32 0 62-1 4 1 5 7t-4 9l-12 2q-22 2-28 13t-7 45q-2 21-2 62v134q0 7 2 7z m345-279q36 1 81 2h62q98 0 134-2 6 11 13 37t10 41q-2 5-8 6t-9-2q-11-25-19-35-11-14-29-19t-52-5q-32 0-45 4-12 2-17 8t-7 21q-2 12-2 36v69q0 10 2 13t12 2h25q27 0 36-2 13-1 18-6t7-16l4-22q2-3 8-2t9 3l-1 15q-1 27-1 42t1 43l1 11q-3 3-9 3t-8-3l-4-18q-3-12-7-17t-18-6q-9-1-36-1h-25q-11 0-12 2t-2 13v92q0 17 1 23t6 7 17 2h36q27 0 44-5 12-4 19-15t15-35q3-2 9-1t8 3q-2 11-4 39-3 32-5 37-10-1-74-1h-104q-37 0-69 2-3-2-4-8t3-9l9-1q14-2 19-4 7-5 9-17t2-41v-203q0-29-2-41t-9-17q-5-2-19-4l-20-2q-3-3-3-9t4-7z m-2280-268q-9-20-19-25-7-5-25-5-13 0-19 2t-8 5q-4 6-4 24v30q0 5 1 7t6 1h18q9 0 13-3t6-12l0-5q2-2 6-2t4 2v27 26q-1 2-4 2t-6-2l0-5q-2-9-6-12t-13-3h-17q-6 0-7 1t-1 7v44q0 8 1 9t8 2h20q16 0 25-9 4-5 9-20 2-1 5-1t4 3l-3 39q-4-1-34-1h-53q-18 0-37 1-2-1-2-5t2-5l6-1q9-1 11-6t2-20v-94q0-18-2-22t-11-5l-11-2q-2-1-2-4t2-5l43 1h33q37 0 58-1 3 6 6 19t4 22q0 1-4 2t-5-1z m201 126q-13 0-34 1-1-2-1-5t1-5l7-1q13-2 14-8 4-9 4-46v-35q0-9-1-11-3 4-15 18l-33 38q-20 23-26 32-11 15-12 23-9-1-21-1-18 0-35 1-2-1-3-5t2-5l6-1q12-2 15-8 2-4 2-22v-63q0-37-4-47-2-4-5-5t-9-4l-4-1q-1 0-1-4t1-4q15 1 28 1l34-1q1 1 1 4t-1 4l-7 2q-12 2-15 8-4 9-4 47v48q0 14 1 16 7-5 28-32l59-72q8-11 17-25l3-3q5 0 9 2t6 4q0 8-1 40v61q1 37 4 46 2 6 13 8l5 1q2 2 2 5t-2 5q-14-1-28-1z m277-6q-17 7-46 7t-59-3q-1-1-1-4t0-5l9 0q7-1 9-6t2-25v-89q0-18-2-22t-11-5l-7-2q-2 0-2-4t2-4q23 1 38 1t39-1q2 1 2 4t-2 4l-8 2q-9 1-11 5t-2 22v107q0 8 1 10t9 3q15 0 25-13 7-10 7-26t-5-25q-6-11-20-16-2 0-1-3t2-3l7-1q18 1 34 8 22 13 22 40 0 16-10 28-8 11-21 16z m243-154q-9 1-17 8t-18 22q-7 13-21 40-2 4 2 6 11 5 17 13 10 10 10 25 0 24-23 37-15 10-49 10-30 0-63-3-3-1-3-4t2-5l8-1q7-1 9-6t2-24v-89q0-18-3-22t-10-5l-8-2q0 0 0-4t0-4h37 38q1 1 1 4t-1 4l-7 2q-9 1-11 5t-2 22v31q0 4 1 5t8 1q10 0 14-9 10-23 19-39 8-14 20-20t30-7q14 0 19 3 1 1 1 3t-2 3z m-75 84q-8-7-19-7t-14 1-2 9v49q1 9 2 11t9 2q14 0 24-11t9-27-9-27z m202 79q-39 0-64-25t-26-64 25-62 62-24q42 0 67 24t25 65q0 38-25 62t-64 24z m3-163q-28 0-42 29-11 22-11 51 0 33 13 52t35 20 37-22 14-56-11-52q-12-22-35-22z m302 161q-10-1-23-1t-31 1q-2-1-2-5t1-5l8-2q6 0 6-3t-2-9l-1-2q-13-36-19-51l-9-24-8-19-31 76q-9 26-9 29t5 4l9 2q1 1 1 4t-2 5q-23-1-38-1l-34 1q-2-1-2-4t1-5l8-3q9-1 11-5t10-20l41-104 10-29q3-3 8-3t8 3l7 19q10 26 19 46l18 43q14 31 21 43 4 7 14 8l6 2q1 1 1 4t-2 5z m161-127q-9-20-19-25-6-5-25-5-13 0-18 2t-8 5q-4 6-4 24v30q0 5 1 7t5 1h18q10 0 13-3t6-12l1-5q1-2 5-2t4 2q-1 11-1 27t1 26q-1 2-4 2t-5-2l-1-5q-3-9-6-12t-13-3h-18q-4 0-5 1t-1 7v44q0 8 1 9t7 2h20q17 0 25-9 5-5 10-20 1-1 5-1t4 3l-3 39q-6-1-34-1h-53q-20 0-37 1-2-1-2-5t2-5l5-1q9-1 11-6t2-20v-94q0-18-2-22t-10-5l-12-2q-2-1-2-4t2-5l43 1h33q37 0 59-1 2 6 6 19t4 22q-1 1-4 2t-6-1z m202 126q-14 0-34 1-1-2-1-5t1-5l6-1q13-2 15-8 4-9 4-46v-35q0-9-1-11-4 4-14 16l-33 39q-20 24-28 33-11 15-12 23-8-1-21-1-17 0-35 1-2-1-2-5t1-5l7-1q12-2 14-8 2-4 2-22v-63q0-37-3-47-2-4-5-5t-9-4l-5-1q-1 0-1-4t1-4q16 1 29 1l34-1q1 1 1 4t-1 4l-8 2q-12 2-14 8-4 9-4 47v48q0 14 1 16 6-5 28-32l58-72q9-11 19-26l2-2q4 0 9 2t5 4v40 61q0 37 4 46 2 6 14 8l4 1q1 2 1 5t-1 5q-14-1-28-1z m224-120q-15-40-51-40-24 0-41 20-18 22-18 57t18 57q16 18 40 18 37 0 47-37 2-1 5 0t5 2q-4 20-4 40l-10 2q-24 4-41 4-20 0-39-5t-31-17q-30-26-30-67t31-66q26-20 68-20 18 0 48 9l3 1q8 12 11 39-2 3-6 3t-5-1v1z m185-6q-9-20-18-25-7-5-26-5-13 0-18 2t-8 5q-4 6-4 24v30q0 5 1 7t5 1h19q9 0 12-3t6-12l1-5q2-2 5-2t4 2v27 26q-1 2-4 2t-5-2l-1-5q-3-9-6-12t-12-3h-18q-5 0-6 1t-1 7v44q0 8 1 9t7 2h20q17 0 25-9 5-5 9-20 2-1 5-1t5 3l-3 39q-6-1-34-1h-54q-18 0-36 1-2-1-2-5t2-5l6-1q8-1 11-6t2-20v-94q0-18-2-22t-11-5l-12-2q-2-1-2-4t2-5l43 1h33q37 0 58-1 3 6 7 19t4 22q0 1-4 2t-6-1z m1815 81l-1 1-2 2q-8 8-18 2-6-3-21-17l-15-12q-24-20-49-34-32-16-58-18-3 16-3 36 1 27 6 46 2 10 3 15t-3 13l-4 9q-7 7-28-4-12-5-34-21l-7-7q-18-11-31-19l-23-13q-23-14-38-13-13 1-26 13v1q-2 23-4 34-4 19-12 30-20 24-47 22-19-2-44-18t-53-36q-6-3-13-8-17-11-34-25-20-15-39-31l-4-4q-12-8-26-20t-15-13q-18-15-34-26-20-14-42-25-1 5 0 13t3 13l7 24q9 29 19 57 11 33 23 61t23 61l9 22q5 14 8 28t1 28-14 18q-8 4-16 2t-15-5q-18-8-33-22t-29-29q-23-25-45-53l-43-55-85-115q-12-16-25-36t-29-37l15 37q7 19 14 37l16 38 31 74q16 36 30 74l8 22q6 14 9 29t2 28-12 21q-6 4-14 4t-14-3-14-6-11-6q-46-27-87-65t-78-75l-5-6q3 9 5 16 4 14 4 27t-4 25q-2 6-7 14t-12 12-14 5-14-6q-9-9-4-17t11-15 5-18-4-18q-7-25-18-46t-25-45q-32-51-67-97-8-10-39-56t-42-65q-10-16-12-28-3-17 14-17 7 0 17 12 5 6 14 22l6 10q13 17 111 152l6 7q66 79 141 151l29 27q14 13 30 28t34 26 35 18q-4-31-15-62l-23-60q-15-36-29-69l-30-70-11-22q-7-13-12-27t-9-28 0-26 10-15 16 1 17 11 13 11q23 26 46 56t44 57l42 59q20 28 43 58t45 56 50 49l14 10q-2-19-9-38l-53-142-7-19q-6-13-11-27t-9-30-4-30 4-24 17-14 22-1 19 10q23 13 43 28l32 26 58 38 11 8q-4-7-6-18l-2-9q-8-24 5-39 9-9 24-17 19-9 34-5 31 5 54 23 12 10 34 34l18 19q7 8 11 10 40-11 79 3 22 8 53 29l40 25v-23q1-36 5-54 1-12 8-20t16-10q15-3 49 12 31 13 63 35t49 40 12 29z m-418-71q-31-27-57-38-31-14-46-3-6 18 8 44 12 24 37 50 22 24 45 39t32 11 12-24-6-42q-10-24-25-37z m270 180q15-7 26 5 5 4 7 18l1 5q1 3 2 5t4 4l5 3q2 4 2 10l-1 2q-1 4-1 5-1 4-7 7t-10 3q-1 0-7-1t-9-3q-9-8-16-17-4-5-5-8t-3-9l-1-6q-1-16 13-23z" horiz-adv-x="4523.5" />

<glyph glyph-name="reward" unicode="&#xea5c;" d="M1047 161q-7 3-14 0t-10-10q-34-79-95-139t-139-93-165-32q-74 0-144 25t-129 71q-5 5-13 4t-12-7-4-13 6-12q62-51 137-77 76-28 159-28 71 0 137 20t125 60 101 91 69 116q4 7 1 13t-10 11z m-847 314q3-1 8-2t9 3 7 9q33 80 93 141t140 93 167 34q72 0 140-23 7-3 13 0t10 11-1 14-10 9q-74 25-152 25-71-1-138-21t-125-60-102-93-69-116q-3-8 0-15t10-9z m897 116q25 15 47 40 13 18 20 33 10 26 2 48-6 14-19 23-17 13-47 13-19 0-42-6-20-4-38-12l-2 0-3 2q-20 21-43 38-33 22-58 22v0q-22 0-37-14-18-15-20-43 0-17 4-39 8-32 25-57l-99 23-65-277q-8-36 12-69t58-41l229-53q10-2 20-2 33 0 58 20t33 52l63 276z m37-125l-151 34 18 75 151-34z m-143 166q-5 11-1 23t16 24q5-15 4-28t-11-21q-2-2-5-4-2 3-3 6z m110 79q26 0 31-13 4-10-5-27t-26-32-34-22-34-7h-3q21 25 15 60-2 14-7 28 34 13 62 13h1z m-199 41q4 3 12 3 13 0 35-14 21-13 37-31-12-10-20-22-20-29-12-61-17 8-30 22-12 14-21 35t-9 41 8 27z m63-169l-17-75-152 34 17 76z m-200-248q-12 20-7 42l30 130 152-35-42-184-98 22q-23 6-35 25z m331-35q-4-19-20-32t-35-12q-6 0-12 2l-95 22 41 184 151-34z m-556-99l-43 140-15 49q-8 27-29 44t-44 17q-10 0-18-3l-345-107q-27-8-39-37t-2-62l58-189q8-27 29-44t44-17q9 0 18 2l345 107q26 8 39 38t2 62z m-500 52q-7 19 1 37 5 13 16 16l344 107q4 1 8 1 10 0 21-8 12-10 17-27l4-14-408-127z m448-117l-344-107q-4 0-8 0-10 0-21 8-12 10-17 26l-44 140 408 127 44-140q6-20-2-37-5-13-16-17z" horiz-adv-x="1195" />

<glyph glyph-name="schedule-check" unicode="&#xea5d;" d="M1110 728h-291v46q0 7-5 13t-13 5-13-5-6-13v-46h-431v46q0 7-5 13t-12 5-14-5-5-13v-46h-287q-12 0-20-9t-8-19v-822q0-12 8-20t20-8h1082q11 0 18 8t8 20v822q0 11-8 19t-18 9z m-11-841h-1062v639h1062v-639z m0 676h-1062v127h278v-46q0-7 5-13t14-5 12 5 5 13v46h431v-46q0-7 6-13t13-5 13 5 6 13v46h279v-127z m-945-324h123q7 0 13 5t5 14v122q0 7-5 13t-13 5h-123q-8 0-13-5t-6-13v-122q0-9 6-14t13-5z m19 123h86v-86h-86v86z m-19-351h123q7 0 13 5t5 13v123q0 7-5 13t-13 5h-123q-8 0-13-5t-6-13v-123q0-8 6-13t13-5z m19 122h86v-85h-86v85z m340 37h-122q-8 0-13-5t-5-13v-123q0-8 5-13t13-5h122q8 0 13 5t6 13v123q0 7-6 13t-13 5z m-18-122h-86v85h86v-85z m129 191h123q7 0 13 5t5 14v122q0 7-5 13t-13 5h-123q-8 0-13-5t-6-13v-122q0-9 6-14t13-5z m18 123h86v-86h-86v86z m-18-351h123q7 0 13 5t5 13v123q0 7-5 13t-13 5h-123q-8 0-13-5t-6-13v-123q0-8 6-13t13-5z m18 122h86v-85h-86v85z m216-122h123q8 0 13 5t5 13v123q0 7-5 13t-13 5h-123q-7 0-13-5t-5-13v-123q0-8 5-13t13-5z m19 122h85v-85h-85v85z m-19 106h123q8 0 13 5t5 14v122q0 7-5 13t-13 5h-123q-7 0-13-5t-5-13v-122q0-9 5-14t13-5z m19 123h85v-86h-85v86z m-455-119q6-6 13-6h2q8 0 13 8l96 126q5 5 4 13t-8 13-13 3-12-7l-84-110-47 48q-6 6-13 6t-13-6-6-13 6-13z" horiz-adv-x="1136.2" />

<glyph glyph-name="schedule" unicode="&#xea5e;" d="M1110 728h-291v46q0 7-5 13t-13 5-13-5-6-13v-46h-431v46q0 7-5 13t-12 5-14-5-5-13v-46h-287q-12 0-20-9t-8-19v-823q0-11 8-19t20-8h1082q11 0 18 8t8 19v823q0 11-8 19t-18 9z m-795-38v-46q0-7 5-13t14-5 12 5 5 13v46h431v-46q0-7 6-13t13-5 13 5 6 13v46h279v-127h-1062v127h278z m-278-803v639h1062v-639h-1062z m240 511h-123q-8 0-13-5t-6-13v-122q0-9 6-14t13-5h123q7-1 13 5t5 14v122q0 7-5 13t-13 5z m-18-122h-86v86h86v-86z m18-106h-123q-8 0-13-5t-6-13v-123q0-8 6-13t13-6h123q7 0 13 6t5 13v123q0 7-5 13t-13 5z m-18-122h-86v85h86v-85z m254 122h-122q-8 0-13-5t-5-13v-123q0-8 5-13t13-6h122q8 0 13 6t6 13v123q0 7-6 13t-13 5z m-18-122h-86v85h86v-85z m252 350h-122q-9 0-14-5t-6-13v-122q0-9 6-14t14-5h122q7-1 13 5t5 14v122q0 7-5 13t-13 5z m-18-122h-86v86h86v-86z m18-106h-122q-9 0-14-5t-6-13v-123q0-8 6-13t14-6h122q7 0 13 6t5 13v123q0 7-5 13t-13 5z m-18-122h-86v85h86v-85z m252 122h-123q-7 0-13-5t-5-13v-123q0-8 5-13t13-6h123q8 0 14 6t5 13v123q-1 7-6 13t-13 5z m-19-122h-85v85h85v-85z m19 350h-123q-7 0-13-5t-5-13v-122q0-9 5-14t13-5h123q8 0 14 5t5 14v122q-1 7-6 13t-13 5z m-19-122h-85v86h85v-86z m-419 121q-7 4-14 3t-12-7l-84-110-47 48q-6 6-13 6t-13-6-6-13 6-13l62-62q6-6 13-6h2q8 0 13 8l96 126q5 5 4 13t-7 13z" horiz-adv-x="1136.2" />

<glyph glyph-name="search" unicode="&#xea5f;" d="M933-99l-188 189h-1q50 57 77 127 27 73 27 151 0 115-58 214-56 96-151 152-100 58-215 58t-214-58q-96-56-152-152-58-99-58-214t58-214q56-96 152-152 99-58 214-58 78 0 151 27 70 27 127 77l189-189q9-9 21-9t21 9 9 21-9 21z m-509 103q-98 0-183 49-83 49-131 131-50 86-50 184t50 183q48 83 131 132 85 49 183 49t184-49q82-49 131-132 49-85 49-183t-49-184q-49-82-131-131-85-49-184-49z" horiz-adv-x="942" />

<glyph glyph-name="share" unicode="&#xea60;" d="M762 238q-50 0-92-22t-68-61l-219 109-3 1q8 28 8 56t-8 56l222 111q26-39 69-62t91-22q52 0 97 26t71 71 26 97-26 97-71 71-98 26-97-26-71-71-25-97q0-25 6-51l-4-1-217-108-2-2q-28 37-69 58t-88 21q-52 0-97-26t-71-71-26-97 26-97 71-71 97-26q47 0 88 21t69 58l1-2 218-108 4-2q-6-25-6-50 0-52 25-97t71-71 97-26 98 26 71 71 26 97-26 97-71 71-97 26z m0 487q34 0 63-17t47-47 17-63-17-63-47-47-64-17-63 17-46 47-17 63 17 63 46 47 64 17z m-568-531q-34 0-63 17t-47 47-17 63 17 64 47 46 63 17 64-17 46-46 17-64-17-63-46-47-64-17z m568-277q-35 0-64 17t-47 47-17 63 18 64 46 46 63 17 64-17 46-46 18-64-18-63-46-47-63-17z" horiz-adv-x="954.9" />

<glyph glyph-name="shipping-box" unicode="&#xea61;" d="M947 602v0 3q-1 51-27 94t-68 67-93 26h-247v-449h435v259z m-66 0v-194h-304v319h181-1 2q32 0 60-17t45-44 17-63v-1z m-692 190v0h-1q-51 0-94-25t-69-69-25-94v-261h456v449h-267z m202-384h-326v195q0 34 17 62t45 45 61 17h203v-319z m-391-358v-11q0-51 25-95t69-69 95-25h267v438h-456v-238z m65 173h326v-308h-202q-33 0-62 17t-45 45-17 62v184z m882 65h-435v-438h245q52 0 95 25t69 69 26 95v249z m-189-373h-2-179v308h304v-184q0-33-16-62t-45-45-62-17z" horiz-adv-x="945.7" />

<glyph glyph-name="shipping" unicode="&#xea62;" d="M1227 184q0 38-12 71l-64 208q-15 56-61 91t-106 36h-66v30q-1 77-52 121-39 33-107 45-37 6-92 6h-406q-66 0-123-33-55-32-88-88t-32-121l-18-337q0-61 28-114t77-87 108-42q10-51 51-86t95-34 96 34 51 85h247q10-52 51-85t95-34 96 35 51 87q52 9 93 39t65 75 23 98z m-184-144q-13 47-53 79t-91 31q-14 0-24-10t-9-23 9-24 24-9q35 0 59-25t25-59-25-59-59-25-59 25-25 59q1 14-9 23t-24 10h-1q-6 3-12 3l-264-1q-12 51-52 83t-93 32q-14 0-24-10t-9-23 9-24 24-9q35 0 59-25t24-59-24-59-60-25-59 25-24 59v2q0 14-10 23t-23 10q-48 0-88 24t-65 64-24 88l18 337q0 48 24 89t64 64 89 24h406q76 0 120-15 36-14 52-38 12-21 12-52v-341q0-14 10-24t24-10h123q14 0 24 10t10 24-10 23-24 10h-90v211h68q35 0 63-22t38-57l66-209q8-25 8-51 0-53-33-93t-85-51z" horiz-adv-x="1227.2" />

<glyph glyph-name="spa-trip-sweepstake" unicode="&#xea63;" d="M713 270q-11 83-96 141 2 14 1 27-2 58-47 85-24 16-57 20-25 3-42-3-13-3-27-9-22-11-34-31-21-34-7-84-89-56-107-129-15-64 25-133-23-36-13-62 8-19 32-28 3-10 7-18 18-44 71-88 18-16 36-28t26-11h22 18q16 2 61 37 39 31 65 58 19 19 28 51 22 9 30 27 10 25-11 59 26 63 19 119z m-40-76q-29 52-80 76-23 12-49 17l4 6q44 41 60 84 97-72 65-183z m-344 85q16 63 103 115l3 1q12 7 27 14 23 12 31 20 13 11 19 29 2 8-1 13t-10 9-12-1-9-10q-2-10-8-15t-25-15l-13-7q-6 32 6 50 8 14 24 20 11 5 14 5 3 1 5 2 7 3 28 1 24-3 42-14 29-19 32-60 3-58-60-120-14-14-33-28l-1-2q-28-22-74-50l-16-11q-31-20-56-45-27 52-16 99z m294-241q-24-25-59-54t-46-31q-11-1-29-1l-4 1q-10 4-29 17-24 19-43 38-24 26-34 51-17 40-17 91 24 25 58 47l15 10q44 28 73 51 36-1 68-16 50-24 75-79-1-48-4-72-7-36-24-53z m348 592q-35 25-82 25h-211v121q0 6-5 11t-11 5h-316q-7 0-12-5t-6-11v-121h-209q-48 0-82-25-18-13-27-30t-10-35v-625q0-18 10-35t27-30q34-25 82-25h770q47 0 82 25 17 13 27 30t9 35v625q0 18-9 35t-27 30z m-608 129h282v-104h-282v104z m610-819q0-23-25-40t-59-17h-770q-35 0-61 17t-25 40v625q0 23 25 40t61 17h770q34 0 59-17t25-40v-625z" horiz-adv-x="1006.4" />

</font>
</defs>
</svg>
